<svg width="36" height="36" viewBox="0 0 36 36" fill="none" xmlns="http://www.w3.org/2000/svg">
<path d="M0 29.613C0 31.2139 1.30239 32.5163 2.90323 32.5163H9.87097V34.8388H7.54839V36.0001H28.4516V34.8388H26.129V32.5163H33.0968C34.6976 32.5163 36 31.2139 36 29.613V27.8711H0V29.613ZM24.9677 34.8388H11.0323V32.5163H24.9677V34.8388ZM1.16129 29.0324H34.8387V29.613C34.8387 30.5734 34.0572 31.355 33.0968 31.355H2.90323C1.94284 31.355 1.16129 30.5734 1.16129 29.613V29.0324Z" fill="#352E48"/>
<path d="M33.0967 5.80664H29.6128V6.96793H33.0967C34.0571 6.96793 34.8386 7.74948 34.8386 8.70987V26.7099H35.9999V8.70987C35.9999 7.10903 34.6975 5.80664 33.0967 5.80664Z" fill="#352E48"/>
<path d="M1.16129 8.70987C1.16129 7.74948 1.94284 6.96793 2.90323 6.96793H5.80645V5.80664H2.90323C1.30239 5.80664 0 7.10903 0 8.70987V26.7099H1.16129V8.70987Z" fill="#352E48"/>
<path d="M31.355 15.5502V11.1594L29.2943 10.6443C28.9831 9.34544 28.4483 8.11505 27.7022 6.98047L26.7319 7.61918C27.4658 8.73402 27.9722 9.95163 28.2369 11.2372L28.3107 11.5949L30.1937 12.0663V14.6432L28.3107 15.1147L28.2369 15.4724C27.9722 16.7585 27.4658 17.9761 26.7319 19.0904L26.531 19.3952L27.5332 21.0652L25.7111 22.8878L24.0406 21.8851L23.7358 22.0865C22.6215 22.821 21.4039 23.3274 20.1178 23.5916L19.7601 23.6653L19.2886 25.5483H16.7117L16.2408 23.6653L15.8831 23.5916C14.597 23.3274 13.3794 22.821 12.2651 22.0865L11.9603 21.8851L10.2898 22.8878L8.1472 20.7452L7.32617 21.5663L10.1104 24.3511L11.9371 23.2542C12.9846 23.8981 14.1093 24.3667 15.2909 24.6489L15.8048 26.7096H20.1956L20.7106 24.6489C21.8922 24.3667 23.0169 23.8981 24.0644 23.2542L25.8911 24.3511L28.9959 21.2458L27.8996 19.4191C28.5435 18.3716 29.0121 17.2469 29.2943 16.0658L31.355 15.5502Z" fill="#352E48"/>
<path d="M4.64502 11.1594V15.5503L6.70573 16.0653C7.01696 17.3642 7.55173 18.5946 8.29786 19.7292L9.26812 19.0905C8.53418 17.9756 8.02786 16.758 7.76308 15.4725L7.68934 15.1148L5.80631 14.6433V12.0664L7.68934 11.5949L7.76308 11.2372C8.02786 9.9511 8.53418 8.73348 9.26812 7.61923L9.46902 7.31439L8.46683 5.64387L10.2889 3.82123L11.9594 4.82458L12.2642 4.6231C13.3785 3.88858 14.5961 3.38226 15.8822 3.11806L16.2399 3.04432L16.7114 1.16129H19.2883L19.7592 3.04432L20.1169 3.11806C21.403 3.38226 22.6206 3.88858 23.7349 4.6231L24.0397 4.82458L25.7102 3.82123L27.8528 5.96381L28.6739 5.14277L25.8908 2.35916L24.0641 3.45542C23.0166 2.81148 21.8919 2.3429 20.7103 2.06071L20.1953 0H15.8044L15.2894 2.06071C14.1078 2.3429 12.9831 2.81148 11.9356 3.45542L10.1089 2.35916L7.00418 5.46329L8.10044 7.29058C7.4565 8.33807 6.9885 9.46277 6.70573 10.6438L4.64502 11.1594Z" fill="#352E48"/>
<path d="M18.0001 21.4837C22.4827 21.4837 26.1292 17.8372 26.1292 13.3546C26.1292 8.87204 22.4827 5.22559 18.0001 5.22559C13.5175 5.22559 9.87109 8.87204 9.87109 13.3546C9.87109 17.8372 13.5175 21.4837 18.0001 21.4837ZM18.0001 6.38688C21.8423 6.38688 24.9679 9.51249 24.9679 13.3546C24.9679 17.1967 21.8423 20.3224 18.0001 20.3224C14.158 20.3224 11.0324 17.1967 11.0324 13.3546C11.0324 9.51249 14.158 6.38688 18.0001 6.38688Z" fill="#352E48"/>
<path d="M20.7683 17.2112L23.9816 13.3551L20.7683 9.49902L19.8765 10.2434L22.4696 13.3551L19.8765 16.4668L20.7683 17.2112Z" fill="#352E48"/>
<path d="M16.1232 16.4668L13.5301 13.3551L16.1232 10.2434L15.2314 9.49902L12.0181 13.3551L15.2314 17.2112L16.1232 16.4668Z" fill="#352E48"/>
<path d="M18.6109 9.68918L16.2871 16.6562L17.3887 17.0237L19.7125 10.0566L18.6109 9.68918Z" fill="#352E48"/>
</svg>
