<svg width="40" height="40" viewBox="0 0 40 40" fill="none" xmlns="http://www.w3.org/2000/svg">
<g clip-path="url(#clip0_1307_3592)">
<rect x="0.5" y="0.5" width="39" height="39" rx="19.5" fill="white"/>
<rect x="0.5" y="0.5" width="39" height="39" rx="19.5" stroke="#716690"/>
<path d="M22.6941 25.7139C22.89 25.5306 23 25.282 23 25.0229C23 24.7637 22.89 24.5152 22.6941 24.3319L17.5221 19.4941L22.6941 14.6563C22.8844 14.472 22.9897 14.2251 22.9873 13.9688C22.985 13.7126 22.8751 13.4675 22.6814 13.2863C22.4876 13.105 22.2256 13.0023 21.9516 13C21.6777 12.9978 21.4137 13.0963 21.2167 13.2743L15.3059 18.8031C15.11 18.9864 15 19.2349 15 19.4941C15 19.7533 15.11 20.0018 15.3059 20.1851L21.2167 25.7139C21.4126 25.8971 21.6783 26 21.9554 26C22.2324 26 22.4981 25.8971 22.6941 25.7139Z" fill="#716690"/>
</g>
<defs>
<clipPath id="clip0_1307_3592">
<rect width="40" height="40" fill="white"/>
</clipPath>
</defs>
</svg>
