<svg width="40" height="40" viewBox="0 0 40 40" fill="none" xmlns="http://www.w3.org/2000/svg">
<g clip-path="url(#clip0_1307_3593)">
<rect x="0.5" y="0.5" width="39" height="39" rx="19.5" fill="white"/>
<rect x="0.5" y="0.5" width="39" height="39" rx="19.5" stroke="#716690"/>
<path d="M16.3059 25.7139C16.11 25.5306 16 25.282 16 25.0229C16 24.7637 16.11 24.5152 16.3059 24.3319L21.4779 19.4941L16.3059 14.6563C16.1156 14.472 16.0103 14.2251 16.0127 13.9688C16.015 13.7126 16.1249 13.4675 16.3186 13.2863C16.5124 13.105 16.7744 13.0023 17.0484 13C17.3223 12.9978 17.5863 13.0963 17.7833 13.2743L23.6941 18.8031C23.89 18.9864 24 19.2349 24 19.4941C24 19.7533 23.89 20.0018 23.6941 20.1851L17.7833 25.7139C17.5874 25.8971 17.3217 26 17.0446 26C16.7676 26 16.5019 25.8971 16.3059 25.7139Z" fill="#716690"/>
</g>
<defs>
<clipPath id="clip0_1307_3593">
<rect width="40" height="40" fill="white"/>
</clipPath>
</defs>
</svg>
