<svg width="36" height="36" viewBox="0 0 36 36" fill="none" xmlns="http://www.w3.org/2000/svg">
<path d="M36 0H0V27.871H7.54839V33.0968C7.54839 34.6976 8.85077 36 10.4516 36C12.0525 36 13.3548 34.6976 13.3548 33.0968V27.871H20.7099L20.3226 28.1613V36H24.3871V31.3548H26.7097V36H30.7742V28.1613L30.3869 27.871H36V0ZM34.8387 1.16129V4.64516H1.16129V1.16129H34.8387ZM26.7097 9.29032V13.9355H24.3871V9.29032H20.3226V17.129L22.6452 18.871V24.3871H13.3548V23.2258H14.5161V22.0645H12.1935V11.5188L11.4509 9.29032H9.4529L8.70968 11.5188V22.0645H6.3871V23.2258H7.54839V24.3871H3.48387V8.12903H32.5161V24.3871H28.4516V18.871L30.7742 17.129V9.29032H26.7097ZM11.0323 22.0645H9.87097V11.7075L10.2896 10.4516H10.6136L11.0323 11.707V22.0645ZM10.4516 34.8387C9.49123 34.8387 8.70968 34.0572 8.70968 33.0968V23.2258H9.87097V31.3548H11.0323V23.2258H12.1935V33.0968C12.1935 34.0572 11.412 34.8387 10.4516 34.8387ZM13.3548 26.7097V25.5484H22.6452V26.4194L22.2579 26.7097H13.3548ZM29.6129 28.7419V34.8387H27.871V30.1935H23.2258V34.8387H21.4839V28.7419L23.8065 27V18.2903L21.4839 16.5484V10.4516H23.2258V15.0968H27.871V10.4516H29.6129V16.5484L27.2903 18.2903V27L29.6129 28.7419ZM28.8389 26.7097L28.4516 26.4194V25.5484H33.6774V6.96774H2.32258V25.5484H7.54839V26.7097H1.16129V5.80645H34.8387V26.7097H28.8389Z" fill="#352E48"/>
</svg>
