<svg width="36" height="36" viewBox="0 0 36 36" fill="none" xmlns="http://www.w3.org/2000/svg">
<path d="M33.6774 30.1935V18C33.6774 16.3992 32.375 15.0968 30.7742 15.0968H27.871V2.90323C27.871 1.30239 26.5686 0 24.9677 0H2.90323C1.30239 0 0 1.30239 0 2.90323V18C0 19.6008 1.30239 20.9032 2.90323 20.9032H6.96774V23.2258H5.80645C5.16614 23.2258 4.64516 23.7468 4.64516 24.3871V25.5484C4.64516 26.1887 5.16614 26.7097 5.80645 26.7097H12.7742V30.1935H10.4516V31.9355C10.4516 34.1767 12.2749 36 14.5161 36H31.9355C34.1767 36 36 34.1767 36 31.9355V30.1935H33.6774ZM1.16129 18V2.90323C1.16129 1.94277 1.94277 1.16129 2.90323 1.16129H24.9677C25.9282 1.16129 26.7097 1.94277 26.7097 2.90323V15.0968H25.5484V3.48387C25.5484 2.84356 25.0274 2.32258 24.3871 2.32258H3.48387C2.84356 2.32258 2.32258 2.84356 2.32258 3.48387V16.2581C2.32258 16.8984 2.84356 17.4194 3.48387 17.4194H12.8326C12.7944 17.607 12.7742 17.8012 12.7742 18V19.7419H6.96774V18.5806H5.80645V19.7419H4.64516V18.5806H3.48387V19.7419H2.90323C1.94277 19.7419 1.16129 18.9605 1.16129 18ZM13.3564 16.2581H3.48387V3.48387H24.3871V15.0968H15.6774C14.7297 15.0968 13.8866 15.5534 13.3564 16.2581ZM8.12903 20.9032H12.7742V23.2258H8.12903V20.9032ZM5.80645 25.5484V24.3871H12.7742V25.5484H5.80645ZM13.9355 18C13.9355 17.0395 14.717 16.2581 15.6774 16.2581H30.7742C31.7347 16.2581 32.5161 17.0395 32.5161 18V30.1935H13.9355V18ZM34.8387 31.9355C34.8387 33.5363 33.5363 34.8387 31.9355 34.8387H14.5161C12.9153 34.8387 11.6129 33.5363 11.6129 31.9355V31.3548H34.8387V31.9355Z" fill="#352E48"/>
<path d="M30.1935 17.4199H16.258C15.6177 17.4199 15.0967 17.9409 15.0967 18.5812V27.8715C15.0967 28.5118 15.6177 29.0328 16.258 29.0328H30.1935C30.8338 29.0328 31.3547 28.5118 31.3547 27.8715V18.5812C31.3547 17.9409 30.8338 17.4199 30.1935 17.4199ZM30.1935 27.8715H16.258V18.5812H30.1935V27.8715Z" fill="#352E48"/>
<path d="M31.9356 33.6769C32.2563 33.6769 32.5163 33.417 32.5163 33.0963C32.5163 32.7756 32.2563 32.5156 31.9356 32.5156C31.6149 32.5156 31.355 32.7756 31.355 33.0963C31.355 33.417 31.6149 33.6769 31.9356 33.6769Z" fill="#352E48"/>
<path d="M29.6129 33.6769C29.9336 33.6769 30.1935 33.417 30.1935 33.0963C30.1935 32.7756 29.9336 32.5156 29.6129 32.5156C29.2922 32.5156 29.0322 32.7756 29.0322 33.0963C29.0322 33.417 29.2922 33.6769 29.6129 33.6769Z" fill="#352E48"/>
<path d="M27.2906 33.6769C27.6113 33.6769 27.8713 33.417 27.8713 33.0963C27.8713 32.7756 27.6113 32.5156 27.2906 32.5156C26.9699 32.5156 26.71 32.7756 26.71 33.0963C26.71 33.417 26.9699 33.6769 27.2906 33.6769Z" fill="#352E48"/>
<path d="M17.83 19.3311L17.0088 20.1523L23.9764 27.12L24.7976 26.2988L17.83 19.3311Z" fill="#352E48"/>
<path d="M22.475 19.3311L21.6538 20.1523L28.6215 27.12L29.4427 26.2988L22.475 19.3311Z" fill="#352E48"/>
<path d="M6.21671 5.97665L5.39551 6.79785L12.3632 13.7655L13.1844 12.9443L6.21671 5.97665Z" fill="#352E48"/>
<path d="M10.8622 5.97665L10.041 6.79785L17.0087 13.7655L17.8299 12.9443L10.8622 5.97665Z" fill="#352E48"/>
<path d="M15.5072 5.97665L14.686 6.79785L21.6537 13.7655L22.4749 12.9443L15.5072 5.97665Z" fill="#352E48"/>
</svg>
