<?xml version="1.0" encoding="UTF-8"?>
<svg width="404px" height="130px" viewBox="0 0 404 130" version="1.1" xmlns="http://www.w3.org/2000/svg" xmlns:xlink="http://www.w3.org/1999/xlink">
    <!-- Generator: Sketch 51.1 (57501) - http://www.bohemiancoding.com/sketch -->
    <title>Logo H0</title>
    <desc>Created with Sketch.</desc>
    <defs></defs>
    <g id="Page-1" stroke="none" stroke-width="1" fill="none" fill-rule="evenodd">
        <g id="Logo" transform="translate(-122.000000, -116.000000)" fill="#2E2E33">
            <g id="DC-Logo" transform="translate(40.000000, 40.000000)">
                <g id="Logo-H0" transform="translate(82.000000, 76.000000)">
                    <path d="M69.4133059,100.578031 C69.197908,98.5615879 70.424546,88.6369026 70.424546,88.6369026 C70.424546,88.6369026 72.8898326,89.0487284 75.2687116,89.3107842 C77.6475906,89.5728399 81.4750478,89.7804771 81.4750478,89.7804771 C81.4750478,89.7804771 79.4112559,97.2270669 80.6097841,98.9268191 C83.3800438,102.8556 98.5217999,112.55824 101.99358,116.452281 C103.738844,118.183908 105.510769,119.863524 107.678715,121.376366 C109.210934,122.675511 114.15627,122.824749 115.456697,124.123894 C116.32628,125.062379 117.390257,127.797343 116.856418,128.292106 C116.492158,128.629703 108.99828,128.79349 107.678715,128.557157 C106.248289,128.557157 104.535387,127.181863 104.535387,127.181863 C104.535387,127.181863 103.471315,128.292106 101.99358,127.506469 C99.3893189,126.212412 99.7785176,123.542172 98.2582289,121.376366 C97.3890056,120.511401 84.6635806,112.164177 76.4635342,107.550044 C69.4286591,103.591548 69.7412921,103.64847 69.4133059,100.578031 Z M18.8127875,74.885625 C17.2881438,73.534008 11.655086,78.3434224 10.0447644,77.9966604 C8.43444273,77.6498985 10.0094472,73.6769091 8.58289932,73.9189635 C6.64845125,74.2471975 6.13244871,78.7629394 4.39494606,79.1137241 C1.59286884,80.1640729 2.68933871e-16,75.9791446 0,70.9836401 C0,65.9881357 1.78141197,60.5445702 7.84887685,57.0590477 C13.9163417,53.5735251 22.9013523,52.6855769 29.8731339,55.0184522 C36.4889044,51.4859563 45.1929706,41.2332392 64.5789577,40.7540145 C83.9649448,40.2747898 91.2232143,49.937616 95.3437744,47.6240619 C99.4643346,45.3105079 100.859084,40.0941898 99.9626061,36.1973245 C98.2454587,28.7331229 94.9147991,24.6745113 92.2491808,18.0278437 C90.5754997,13.8573523 90.4838236,8.34849339 92.5921164,4.30859487 C93.5380359,2.5142151 95.8351914,0.421138103 99.2991507,0.0351438048 C102.76311,-0.350850493 103.675266,2.55303115 106.099654,3.3451681 C108.524043,4.13730505 113.705587,4.62491714 114.110382,6.46772509 C114.515176,8.31053305 108.297622,9.75918539 106.888117,9.6082404 C103.586773,9.25547009 101.503752,11.4709495 101.682709,15.3853431 C101.895754,20.3631358 103.069018,22.1406194 107.668922,29.2262335 C112.268825,36.3118476 112.227004,48.093313 106.352076,56.313879 C104.499437,58.7154307 102.527253,60.755415 101.220009,63.501257 C100.166715,65.7009835 101.220009,61.2682024 101.220009,70.0480431 C101.220009,78.8278838 96.7830154,83.0541139 90.9848731,84.9095535 C83.1788865,87.407515 76.4380944,86.4732192 69.5441622,85.6626165 C60.0048625,84.540966 52.5403582,84.672146 48.6441923,85.6626165 C45.2678561,86.5241901 34.7005194,92.4721012 33.4000931,95.2399913 C32.7098275,96.7341771 28.9802964,112.285878 28.2968482,115.701644 C28.0173333,117.107638 28.1748344,119.906695 27.5220647,121.153263 C26.807938,122.537208 18.1122343,128.007028 15.1602836,129.129787 C13.8002047,129.648766 11.0538442,130.312122 10.727654,129.836773 C8.8036467,127.62775 8.81035043,127.116049 14.4012349,123.090209 C12.448429,119.04932 18.0826551,118.062738 19.7392926,116.069925 C21.5476181,113.902423 24.827653,90.3031184 25.9520838,87.2298037 C27.0765145,84.156489 31.4656338,83.0985013 33.2449852,80.3645313 C32.4032125,79.3947062 31.2375684,79.9124335 28.1543821,80.7740071 C25.5092161,81.51686 19.9853475,83.4808409 18.8127875,82.4988504 C17.6402274,81.51686 20.3374312,76.2372421 18.8127875,74.885625 Z" id="True-Bird"></path>
                    <path d="M170.861156,60.9544066 L152.937843,60.9544066 L152.937843,15.3004865 L170.793264,15.3004865 C184.982553,15.3004865 194.826797,24.4038918 194.826797,38.0932232 C194.826797,51.9194479 184.982553,60.9544066 170.861156,60.9544066 Z M170.793264,52.3985745 C179.754921,52.3985745 184.982553,45.8961421 184.982553,38.0932232 C184.982553,30.0849644 180.094377,23.8563186 170.861156,23.8563186 L162.578413,23.8563186 L162.578413,52.3985745 L170.793264,52.3985745 Z M216.891481,61.7757665 C206.911455,61.7757665 199.375516,54.9995475 199.375516,44.3903156 C199.375516,34.8077837 206.436215,27.0733115 216.34835,27.0733115 C226.192594,27.0733115 232.778053,34.4655504 232.778053,45.2116755 L232.778053,47.2650752 L208.405064,47.2650752 C209.016086,51.303428 212.27487,54.6573142 217.841959,54.6573142 C220.625504,54.6573142 224.427419,53.493721 226.53205,51.4403213 L230.401856,57.1898405 C227.143072,60.2014934 221.983331,61.7757665 216.891481,61.7757665 Z M224.49531,41.2417694 C224.223745,38.0932232 222.051222,34.1917638 216.34835,34.1917638 C210.984935,34.1917638 208.676629,37.9563299 208.337173,41.2417694 L224.49531,41.2417694 Z M248.257278,61.7757665 C242.214949,61.7757665 239.024056,58.6272203 239.024056,52.6723611 L239.024056,15.3004865 L247.646256,15.3004865 L247.646256,50.3451748 C247.646256,52.4670212 248.732517,54.0412943 250.633474,54.0412943 C251.92341,54.0412943 253.145454,53.5621677 253.620693,53.0145944 L255.453759,59.6539201 C254.163824,60.8175133 251.787627,61.7757665 248.257278,61.7757665 Z M263.532828,24.3354452 C260.749283,24.3354452 258.440978,22.0082589 258.440978,19.1334993 C258.440978,16.2587397 260.749283,14 263.532828,14 C266.384264,14 268.692569,16.2587397 268.692569,19.1334993 C268.692569,22.0082589 266.384264,24.3354452 263.532828,24.3354452 Z M267.877873,60.9544066 L259.255674,60.9544066 L259.255674,27.8946713 L267.877873,27.8946713 L267.877873,60.9544066 Z M294.219711,60.9544066 L284.918598,60.9544066 L271.747679,27.8946713 L280.980901,27.8946713 L289.535209,50.892748 L298.157409,27.8946713 L307.39063,27.8946713 L294.219711,60.9544066 Z M326.671769,61.7757665 C316.691743,61.7757665 309.155805,54.9995475 309.155805,44.3903156 C309.155805,34.8077837 316.216504,27.0733115 326.128639,27.0733115 C335.972882,27.0733115 342.558342,34.4655504 342.558342,45.2116755 L342.558342,47.2650752 L318.185353,47.2650752 C318.796375,51.303428 322.055159,54.6573142 327.622248,54.6573142 C330.405793,54.6573142 334.207708,53.493721 336.312339,51.4403213 L340.182145,57.1898405 C336.923361,60.2014934 331.76362,61.7757665 326.671769,61.7757665 Z M334.275599,41.2417694 C334.004034,38.0932232 331.831511,34.1917638 326.128639,34.1917638 C320.765223,34.1917638 318.456918,37.9563299 318.117461,41.2417694 L334.275599,41.2417694 Z M357.426544,60.9544066 L348.804345,60.9544066 L348.804345,27.8946713 L357.426544,27.8946713 L357.426544,32.343704 C359.802741,29.4689445 363.80833,27.0733115 367.88181,27.0733115 L367.88181,35.5606969 C367.270788,35.4238036 366.523983,35.3553569 365.505613,35.3553569 C362.654177,35.3553569 358.852262,36.9980767 357.426544,39.1199231 L357.426544,60.9544066 Z M386.551927,74.3699514 C381.052729,74.3699514 376.639792,72.7956782 372.837877,69.4417921 L376.707683,63.2131463 C379.08388,66.0879059 383.089469,67.251499 386.551927,67.251499 C392.119016,67.251499 395.3778,63.4184863 395.3778,58.7641136 L395.3778,55.3417807 C393.137386,57.8058604 389.199689,60.3383867 383.836274,60.3383867 C376.639792,60.3383867 373.245225,56.3684806 373.245225,49.9344949 L373.245225,27.8946713 L381.867425,27.8946713 L381.867425,46.512162 C381.867425,51.098088 384.243622,52.6039145 387.909754,52.6039145 C391.236429,52.6039145 393.884191,50.7558547 395.3778,48.8393483 L395.3778,27.8946713 L404,27.8946713 L404,58.7641136 C404,68.6888788 397.007192,74.3699514 386.551927,74.3699514 Z M174.169315,124 C160.523157,124 150,114.417468 150,100.385903 C150,86.2858921 160.523157,76.7718068 174.169315,76.7718068 C184.08145,76.7718068 189.852214,82.1790927 193.043106,87.9286118 L184.760364,92.0354112 C182.859406,88.3392918 178.785926,85.3960855 174.169315,85.3960855 C165.886572,85.3960855 159.912135,91.7616246 159.912135,100.385903 C159.912135,109.010182 165.886572,115.375721 174.169315,115.375721 C178.785926,115.375721 182.859406,112.432515 184.760364,108.736396 L193.043106,112.774748 C189.852214,118.455821 184.08145,124 174.169315,124 Z M208.608738,124 C202.566409,124 199.375516,120.851454 199.375516,114.896595 L199.375516,77.52472 L207.997716,77.52472 L207.997716,112.569408 C207.997716,114.691255 209.083977,116.265528 210.984935,116.265528 C212.27487,116.265528 213.496914,115.786401 213.972153,115.238828 L215.805219,121.878154 C214.515284,123.041747 212.139087,124 208.608738,124 Z M250.361909,123.17864 L241.739709,123.17864 L241.739709,119.003394 C239.499295,121.467474 235.561598,124 230.198182,124 C223.001701,124 219.607134,120.030094 219.607134,113.596108 L219.607134,90.1189049 L228.229334,90.1189049 L228.229334,110.173775 C228.229334,114.759701 230.60553,116.265528 234.271663,116.265528 C237.598338,116.265528 240.2461,114.417468 241.739709,112.500962 L241.739709,90.1189049 L250.361909,90.1189049 L250.361909,123.17864 Z M267.538417,112.569408 C269.032026,114.691255 272.155027,116.265528 275.006464,116.265528 C279.962531,116.265528 283.289206,112.364068 283.289206,106.614549 C283.289206,100.933477 279.962531,97.0320172 275.006464,97.0320172 C272.155027,97.0320172 269.032026,98.674737 267.538417,100.86503 L267.538417,112.569408 Z M267.538417,123.17864 L258.916217,123.17864 L258.916217,77.52472 L267.538417,77.52472 L267.538417,94.3625976 C270.118287,90.9402647 273.784419,89.297545 277.654226,89.297545 C286.00486,89.297545 292.182971,95.868424 292.182971,106.614549 C292.182971,117.702908 285.936968,124 277.654226,124 C273.716528,124 270.118287,122.220387 267.538417,118.934947 L267.538417,123.17864 Z" id="Delivery-Club"></path>
                </g>
            </g>
        </g>
    </g>
</svg>