<svg width="24" height="24" viewBox="0 0 24 24" fill="none" xmlns="http://www.w3.org/2000/svg">
<path d="M6.5 1.85H17.5V14.85L12.2947 21.5993C11.9263 22.0769 11.2222 22.1222 10.7957 21.6957L10.35 21.25C10.2333 21.1333 10.1373 20.975 10.062 20.775C9.98667 20.575 9.94933 20.3833 9.95 20.2V19.85V14.85H3.5C2.96667 14.85 2.5 14.65 2.1 14.25C1.7 13.85 1.5 13.3833 1.5 12.85V10.85C1.5 10.7333 1.51667 10.6083 1.55 10.475C1.58333 10.3417 1.61667 10.2167 1.65 10.1L4.65 3.05C4.8 2.71667 5.05 2.43334 5.4 2.2C5.75 1.96667 6.11667 1.85 6.5 1.85ZM15.5 4.85C15.5 4.29772 15.0523 3.85 14.5 3.85H7.1594C6.75937 3.85 6.39783 4.0884 6.24025 4.45608L3.5 10.85V11.85C3.5 12.4023 3.94772 12.85 4.5 12.85H10.6C11.1523 12.85 11.6 13.2977 11.6 13.85V19.5348L15.5 14V4.85ZM17.5 14.85V12.85H20.5V3.85H17.5V1.85H21.5C22.0523 1.85 22.5 2.29772 22.5 2.85V13.85C22.5 14.4023 22.0523 14.85 21.5 14.85H17.5Z" fill="#352E48"/>
</svg>
