<?xml version="1.0" encoding="UTF-8" standalone="no"?>
<svg
   viewBox="0 0 198 198"
   version="1.1"
   id="svg22"
   xmlns="http://www.w3.org/2000/svg"
   xmlns:svg="http://www.w3.org/2000/svg">
  <defs
     id="defs2" />
  <path
     id="path6"
     style="color:#000000;fill:#000000;stroke-width:1.1593;-inkscape-stroke:none"
     d="M 105.33008,5.4042997 A 46.452962,46.452962 0 0 0 58.876953,51.857425 v 57.095695 h 14.746094 v 7.60547 c -0.262079,10.91093 -9.181638,19.61914 -20.095703,19.61914 -10.914065,0 -19.835578,-8.70821 -20.097656,-19.61914 V 83.820315 C 33.410517,70.256606 22.417234,59.266689 8.853516,59.253909 H 0 V 63.7168 h 8.853516 c 11.083247,0.03191 20.053683,9.020231 20.066406,20.103515 v 32.738275 c 0.01916,13.55919 11.007215,24.54531 24.566406,24.56446 13.575415,0.006 24.586812,-10.98905 24.599612,-24.56446 v -7.60547 h 15.46484 v 83.64258 h 4.76563 v -83.64258 h 15.34961 v 83.64258 h 4.76367 v -83.64258 h 15.25976 l 0.1836,51.23047 c 0,12.91959 2.32943,23.71193 16.82617,23.70508 13.82261,-0.0195 18.38086,-8.23287 18.38086,-24.16992 v -32.73828 c 0.0128,-11.08329 8.98316,-20.06964 20.0664,-20.10156 H 198 v -4.46485 h -8.85352 c -13.56372,0.0127 -24.55699,11.0027 -24.57617,24.56641 v 32.73828 c -0.33814,14.07741 -4.45055,20.14648 -14.04297,20.14648 -8.96881,0 -11.95703,-6.65832 -11.95703,-19.54101 l 0.13672,-51.3711 h 13.07422 V 51.857425 A 46.452962,46.452962 0 0 0 105.33008,5.4042997 Z M 84.24219,51.441409 a 5.7501046,5.7501046 0 0 1 5.75,5.75 5.7501046,5.7501046 0 0 1 -5.75,5.75 5.7501046,5.7501046 0 0 1 -5.75,-5.75 5.7501046,5.7501046 0 0 1 5.75,-5.75 z m 42.1875,0 a 5.7501046,5.7501046 0 0 1 5.74804,5.75 5.7501046,5.7501046 0 0 1 -5.74804,5.75 5.7501046,5.7501046 0 0 1 -5.75196,-5.75 5.7501046,5.7501046 0 0 1 5.75196,-5.75 z" />
</svg>
