<?xml version="1.0" encoding="UTF-8" standalone="no"?>
<svg
   viewBox="0 0 198 198"
   version="1.1"
   id="svg22"
   xmlns="http://www.w3.org/2000/svg"
   xmlns:svg="http://www.w3.org/2000/svg">
  <defs
     id="defs2" />
  <path
     id="path6"
     style="color:#000000;fill:#000000;stroke-width:1.50195;-inkscape-stroke:none"
     d="M 102.54102 9.125 C 69.303085 9.1248831 42.359258 36.068703 42.359375 69.306641 L 42.359375 143.27734 L 61.462891 143.27734 L 61.462891 153.13086 C 61.123354 167.26656 54.894521 178.54883 45.089844 178.54883 C 38.656902 178.54883 24.052734 178.24171 24.052734 153.13086 L 24.052734 110.7168 C 24.027897 93.144269 19.178112 78.90523 0 78.888672 L 0 84.671875 C 14.358942 84.713225 18.194453 96.357797 18.210938 110.7168 L 18.210938 153.13086 C 18.210938 184.18446 37.727496 184.95508 45.037109 184.95508 C 53.633645 184.95908 67.220145 178.58788 67.244141 153.13086 L 67.244141 143.27734 L 87.28125 143.27734 L 87.28125 198 L 93.455078 198 L 93.455078 143.27734 L 113.33984 143.27734 L 113.33984 198 L 119.51172 198 L 119.51172 143.27734 L 139.28125 143.27734 L 139.51953 164.38867 C 139.51953 192.25285 155.34139 195.27148 161.89844 195.27148 C 173.53195 195.27148 180.75781 183.79287 180.75781 171.10156 C 180.75781 153.18694 181.76305 140.58984 198 140.58984 L 198 134.80664 C 175.77104 134.82724 175.08594 154.68093 175.08594 171.61719 C 175.08594 182.06519 168.07915 189.45898 162.19141 189.45898 C 156.13492 189.45898 145.60547 185.46121 145.60547 164.57031 L 145.7832 143.27734 L 162.7207 143.27734 L 162.7207 69.306641 C 162.72081 36.069689 135.77797 9.1262782 102.54102 9.125 z M 75.158203 66.066406 A 10 10 0 0 1 85.158203 76.066406 A 10 10 0 0 1 75.158203 86.066406 A 10 10 0 0 1 65.158203 76.066406 A 10 10 0 0 1 75.158203 66.066406 z M 130.37305 66.066406 A 10 10 0 0 1 140.37305 76.066406 A 10 10 0 0 1 130.37305 86.066406 A 10 10 0 0 1 120.37305 76.066406 A 10 10 0 0 1 130.37305 66.066406 z " />
</svg>
