<?xml version="1.0" encoding="UTF-8" standalone="no"?>
<svg
   viewBox="0 0 198 198"
   version="1.1"
   id="svg22"
   xmlns="http://www.w3.org/2000/svg"
   xmlns:svg="http://www.w3.org/2000/svg">
  <defs
     id="defs2" />
  <path
     id="path6"
     style="color:#000000;fill:#000000;stroke-width:1.50195;-inkscape-stroke:none"
     d="M 102.54102,9.125 C 69.303085,9.1248831 42.359258,36.068703 42.359375,69.306641 V 143.27734 H 59.463 v 9.85352 C 59.046627,170.46543 53.7592,176.549 45.089844,176.549 38.656902,176.549 26.053,178.24171 26.053,153.13086 V 110.7168 C 26.028163,93.144269 19.178112,76.905558 0,76.889 v 9.783 c 14.358942,0.04135 16.194515,9.685797 16.211,24.0448 v 42.41406 c 0,31.0536 21.516496,33.82414 28.826109,33.82414 8.596536,0.004 24.177544,-2.68988 24.206891,-33.82414 v -9.85352 H 85.281 V 198 H 95.455 V 143.27734 H 111.34 V 198 h 10.172 v -54.72266 h 15.76886 l 0.23828,21.11133 c 0,31.47675 16.68693,32.88233 22.67632,32.88233 6.97731,0 22.56254,-2.63512 22.56254,-26.16944 0,-17.91462 0.82156,-28.51156 15.242,-28.51156 v -9.783 c -22.22896,0.0206 -24.914,17.05717 -24.914,38.81019 0,15.71652 -8.7662,15.95534 -13.0517,15.95534 -8.90661,0 -12.42917,-7.69762 -12.42917,-23.00222 l 0.17773,-21.29297 H 162.7207 V 69.306641 C 162.72081,36.069689 135.77797,9.1262782 102.54102,9.125 Z M 75.158203,66.066406 c 5.522847,0 10,4.477153 10,10 0,5.522847 -4.477153,10 -10,10 -5.522847,0 -10,-4.477153 -10,-10 0,-5.522847 4.477153,-10 10,-10 z m 55.214847,0 c 5.52285,0 10,4.477153 10,10 0,5.522847 -4.47715,10 -10,10 -5.52285,0 -10,-4.477153 -10,-10 0,-5.522847 4.47715,-10 10,-10 z" />
</svg>
