<svg width="278" height="410" viewBox="0 0 278 410" fill="none" xmlns="http://www.w3.org/2000/svg">
<path d="M265.064 185.098C264.238 158.523 257.844 122.299 232.085 100.61C215.858 86.9425 186.959 84.6003 168.101 89.3229C142.018 94.537 129.815 115.285 125.221 123.095C124.745 123.903 124.371 124.541 124.078 124.986C124.129 124.108 124.202 123.236 124.329 122.381C125.67 113.335 128.933 104.763 132.088 96.4753C135.507 87.4984 139.038 78.2159 140.313 68.0581C141.695 57.0869 140.5 49.9775 136.553 45.6954C133.863 42.7698 130.028 41.3988 125.005 41.6076C115.68 42.005 108.063 45.4736 102.356 51.9125C89.9747 65.8907 89.1065 90.6735 90.5575 108.999C90.6696 110.452 90.9086 112.656 91.1818 115.187C91.563 118.728 92.2247 124.846 92.471 128.947C89.287 124.802 83.692 119.023 69.1913 116.137C52.8998 114.948 40.7906 126.848 33.1407 135.935C23.8944 146.92 6.57546 181.322 15.3503 212.008C23.2701 239.714 40.107 259.199 48.8599 264.974C63.1314 274.087 80.825 276.06 96.7539 270.314C110.844 265.16 120.872 254.63 124.982 240.647C125.331 239.463 125.714 238.047 126.101 236.466C129.892 237.496 134.225 238.512 139.044 239.507C137.813 258.681 126.432 305.741 119.535 334.241C117.304 343.474 115.54 350.765 114.696 354.727C113.848 358.724 112.756 362.799 111.702 366.739C110.248 372.184 108.746 377.802 107.808 383.427C107.191 387.117 109.101 392.865 113.608 393.839C114.292 393.993 114.992 394.072 115.694 394.075C121.647 394.075 124.196 388.002 125.093 385.867C127.371 380.11 129.302 374.22 130.875 368.232C131.742 365.173 132.609 362.117 133.574 359.107C137.221 347.693 146.06 305.929 152.518 275.434C155.479 261.442 158.11 249.016 159.473 243.155C165.689 244.125 172.38 245.066 179.545 245.977C177.301 266.96 166.86 310.145 160.381 336.933C158.142 346.197 156.371 353.516 155.527 357.482C154.678 361.478 153.587 365.55 152.533 369.487C151.079 374.932 149.573 380.553 148.631 386.182C148.015 389.875 149.924 395.627 154.432 396.599C155.115 396.751 155.813 396.829 156.513 396.833C162.475 396.833 165.02 390.76 165.917 388.625C168.194 382.867 170.126 376.979 171.699 370.99C172.566 367.931 173.432 364.876 174.397 361.865C178.045 350.452 186.887 308.672 193.345 278.166C195.946 265.885 198.291 254.809 199.746 248.326C203.341 248.708 207.022 249.084 210.786 249.451C200.873 281.146 195.958 313.823 197.254 339.96C198.051 355.923 204.677 367.012 215.915 371.188C218.704 372.221 221.656 372.749 224.631 372.745C234.471 372.656 243.505 367.287 248.285 358.686C252.666 350.847 254.762 342.036 253.383 337.259C253.057 335.812 252.163 334.557 250.902 333.778C248.39 332.093 246.024 331.571 243.887 332.198C239.787 333.417 237.69 338.323 235.474 343.519C233.878 347.257 232.229 351.119 230.066 352.702C228.447 353.875 225.259 354.375 222.292 353.061C219.941 352.019 217.008 349.508 216.383 343.585C214.709 313.239 217.968 296.151 223.529 271.609C224.35 267.989 227.505 257.793 229.619 251.081C232.202 251.207 235.546 251.317 238.949 251.317C244.993 251.317 251.208 250.973 253.596 249.786C257.314 247.941 261.639 242.088 262.57 238.592C265.132 229.006 265.315 193.221 265.064 185.098Z" fill="white"/>
<path d="M265.064 185.098C264.238 158.523 257.844 122.299 232.085 100.61C215.858 86.9425 186.959 84.6003 168.101 89.3229C142.018 94.537 129.815 115.285 125.221 123.095C124.745 123.903 124.371 124.541 124.078 124.986C124.129 124.108 124.202 123.236 124.329 122.381C125.67 113.335 128.933 104.763 132.088 96.4753C135.507 87.4984 139.038 78.2159 140.313 68.0581C141.695 57.0869 140.5 49.9775 136.553 45.6954C133.863 42.7698 130.028 41.3988 125.005 41.6076C115.68 42.005 108.063 45.4736 102.356 51.9125C89.9747 65.8907 89.1065 90.6735 90.5575 108.999C90.6696 110.452 90.9086 112.656 91.1818 115.187C91.563 118.728 92.2247 124.846 92.471 128.947C89.287 124.802 83.692 119.023 69.1913 116.137C52.8998 114.948 40.7906 126.848 33.1407 135.935C23.8944 146.92 6.57546 181.322 15.3503 212.008C23.2701 239.714 40.107 259.199 48.8599 264.974C63.1314 274.087 80.825 276.06 96.7539 270.314C110.844 265.16 120.872 254.63 124.982 240.647C125.331 239.463 125.714 238.047 126.101 236.466C129.892 237.496 134.225 238.512 139.044 239.507C137.813 258.681 126.432 305.741 119.535 334.241C117.304 343.474 115.54 350.765 114.696 354.727C113.848 358.724 112.756 362.799 111.702 366.739C110.248 372.184 108.746 377.802 107.808 383.427C107.191 387.117 109.101 392.865 113.608 393.839C114.292 393.993 114.992 394.072 115.694 394.075C121.647 394.075 124.196 388.002 125.093 385.867C127.371 380.11 129.302 374.22 130.875 368.232C131.742 365.173 132.609 362.117 133.574 359.107C137.221 347.693 146.06 305.929 152.518 275.434C155.479 261.442 158.11 249.016 159.473 243.155C165.689 244.125 172.38 245.066 179.545 245.977C177.301 266.96 166.86 310.145 160.381 336.933C158.142 346.197 156.371 353.516 155.527 357.482C154.678 361.478 153.587 365.55 152.533 369.487C151.079 374.932 149.573 380.553 148.631 386.182C148.015 389.875 149.924 395.627 154.432 396.599C155.115 396.751 155.813 396.829 156.513 396.833C162.475 396.833 165.02 390.76 165.917 388.625C168.194 382.867 170.126 376.979 171.699 370.99C172.566 367.931 173.432 364.876 174.397 361.865C178.045 350.452 186.887 308.672 193.345 278.166C195.946 265.885 198.291 254.809 199.746 248.326C203.341 248.708 207.022 249.084 210.786 249.451C200.873 281.146 195.958 313.823 197.254 339.96C198.051 355.923 204.677 367.012 215.915 371.187C218.704 372.221 221.656 372.749 224.631 372.745C234.471 372.656 243.505 367.287 248.285 358.686C252.666 350.847 254.762 342.036 253.383 337.259C253.057 335.812 252.163 334.557 250.902 333.778C248.39 332.093 246.024 331.571 243.887 332.198C239.787 333.417 237.69 338.323 235.474 343.519C233.878 347.257 232.229 351.119 230.065 352.702C228.447 353.875 225.259 354.375 222.292 353.061C219.941 352.019 217.008 349.508 216.383 343.585C214.709 313.239 217.968 296.151 223.529 271.609C224.35 267.989 227.505 257.793 229.619 251.081C232.202 251.207 235.546 251.317 238.949 251.317C244.993 251.317 251.208 250.973 253.596 249.786C257.314 247.941 261.639 242.088 262.57 238.592C265.132 229.006 265.315 193.221 265.064 185.098Z" stroke="white" stroke-width="13" stroke-miterlimit="10"/>
<path fill-rule="evenodd" clip-rule="evenodd" d="M141.051 237.67C140.35 261.207 120.12 338.471 116.573 355.123C114.541 364.669 111.303 374.139 109.699 383.742C109.212 386.675 110.725 391.261 114.017 391.972C119.076 393.066 121.625 389.196 123.331 385.127C126.918 376.582 128.93 367.353 131.751 358.527C137.441 340.742 155.758 249.022 158.345 239.763L141.051 237.67Z" fill="#352E48"/>
<path d="M115.697 394.076C114.995 394.073 114.295 393.994 113.611 393.84C109.104 392.865 107.194 387.118 107.811 383.427C108.749 377.803 110.25 372.181 111.705 366.74C112.761 362.8 113.851 358.725 114.699 354.728C115.543 350.765 117.307 343.475 119.538 334.242C126.673 304.751 138.611 255.39 139.137 237.613C139.153 237.076 139.394 236.571 139.802 236.221C140.207 235.863 140.748 235.699 141.282 235.772L158.575 237.868C159.623 237.994 160.37 238.945 160.244 239.992C160.233 240.09 160.213 240.186 160.186 240.28C159.263 243.586 156.138 258.346 152.521 275.438C146.063 305.933 137.224 347.697 133.577 359.111C132.612 362.118 131.745 365.177 130.878 368.236C129.305 374.224 127.374 380.114 125.096 385.871C124.199 388.003 121.65 394.076 115.697 394.076ZM142.859 239.812C141.563 259.458 130.167 306.574 123.261 335.14C121.033 344.347 119.278 351.615 118.443 355.525C117.573 359.616 116.471 363.742 115.405 367.731C113.973 373.083 112.494 378.614 111.584 384.056C111.241 386.118 112.302 389.648 114.421 390.107C117.516 390.772 119.579 389.118 121.567 384.389C123.783 378.774 125.662 373.031 127.196 367.193C128.074 364.093 128.952 360.997 129.928 357.945C133.516 346.718 142.336 305.062 148.775 274.645C152.008 259.38 154.657 246.858 155.959 241.401L142.859 239.812Z" fill="black"/>
<path fill-rule="evenodd" clip-rule="evenodd" d="M181.878 240.431C181.177 263.967 160.947 341.231 157.4 357.883C155.368 367.429 152.13 376.895 150.526 386.499C150.039 389.436 151.556 394.022 154.844 394.733C159.903 395.823 162.452 391.956 164.158 387.887C167.745 379.339 169.757 370.11 172.578 361.287C178.268 343.503 196.585 251.782 199.172 242.518L181.878 240.431Z" fill="#352E48"/>
<path d="M156.52 396.835C155.819 396.831 155.122 396.753 154.438 396.6C149.931 395.629 148.021 389.877 148.638 386.183C149.576 380.554 151.082 374.93 152.539 369.488C153.596 365.551 154.684 361.48 155.533 357.484C156.378 353.517 158.149 346.2 160.387 336.934C167.515 307.462 179.441 258.139 179.968 240.375C179.983 239.838 180.225 239.332 180.633 238.982C181.038 238.627 181.575 238.464 182.109 238.533L199.402 240.621C200.449 240.743 201.198 241.69 201.076 242.737C201.065 242.837 201.045 242.937 201.017 243.034C200.094 246.339 196.973 261.089 193.355 278.169C186.897 308.676 178.054 350.455 174.406 361.868C173.442 364.879 172.576 367.934 171.708 370.993C170.135 376.982 168.204 382.87 165.926 388.628C165.027 390.762 162.481 396.835 156.52 396.835ZM183.687 242.575C182.39 262.205 171.006 309.288 164.107 337.834C161.872 347.071 160.108 354.365 159.275 358.283C158.403 362.373 157.301 366.491 156.236 370.473C154.805 375.829 153.32 381.363 152.416 386.808C152.072 388.874 153.133 392.403 155.249 392.862C158.337 393.53 160.418 391.873 162.402 387.144C164.616 381.529 166.495 375.787 168.03 369.949C168.909 366.848 169.787 363.752 170.762 360.7C174.354 349.474 183.174 307.803 189.613 277.374C192.843 262.125 195.492 249.609 196.792 244.156L183.687 242.575Z" fill="black"/>
<path d="M214.48 244.255C204.783 273.325 197.645 309.089 199.172 339.869C199.89 354.34 205.632 365.326 216.586 369.398C227.891 373.6 240.739 368.28 246.621 357.756C251.794 348.501 253.742 337.498 249.842 335.368C238.977 328.086 238.199 349.135 231.198 354.249C226.793 357.465 215.79 356.241 214.48 343.693C212.773 312.802 216.252 295.079 221.667 271.191C222.961 265.497 229.789 244.255 229.789 244.255H214.48Z" fill="#352E48"/>
<path d="M224.637 372.749C221.662 372.752 218.71 372.225 215.921 371.191C204.684 367.015 198.057 355.926 197.261 339.964C195.885 312.228 201.499 277.123 212.663 243.651C212.924 242.87 213.655 242.345 214.479 242.344H229.787C230.842 242.341 231.698 243.195 231.701 244.249C231.702 244.45 231.67 244.651 231.607 244.843C231.54 245.052 224.794 266.064 223.535 271.614C217.973 296.157 214.714 313.244 216.389 343.591C217.013 349.514 219.947 352.024 222.298 353.066C225.265 354.381 228.453 353.878 230.071 352.707C232.235 351.123 233.883 347.262 235.479 343.524C237.696 338.328 239.792 333.421 243.892 332.203C246.026 331.576 248.395 332.098 250.907 333.783C252.169 334.563 253.063 335.817 253.389 337.264C254.771 342.041 252.671 350.852 248.291 358.691C243.51 367.291 234.477 372.66 224.637 372.749ZM215.858 246.168C205.128 278.811 199.747 312.856 201.077 339.777C201.795 354.112 207.535 363.995 217.249 367.606C227.491 371.415 239.389 366.773 244.946 356.823C248.743 350.03 250.792 342.074 249.712 338.32C249.608 337.816 249.329 337.365 248.923 337.047C247.23 335.926 245.997 335.579 244.977 335.87C242.603 336.572 240.768 340.867 238.996 345.021C237.199 349.234 235.338 353.592 232.325 355.792C229.365 357.955 224.603 358.273 220.739 356.562C218.057 355.374 213.437 352.143 212.573 343.893C210.866 313.034 214.326 294.909 219.801 270.77C220.844 266.173 225.314 251.984 227.164 246.168H215.858Z" fill="black"/>
<path d="M119.085 232.316C148.48 242.677 220.731 248.421 225.673 248.91C230.602 249.397 248.799 250.042 252.748 248.08C255.875 246.527 259.902 241.207 260.724 238.106C263.186 228.873 263.399 193.293 263.147 185.159C262.202 154.757 254.464 121.957 230.851 102.07C215.723 89.33 187.809 86.3613 168.473 91.1992C139.893 96.9132 128.317 122.271 125.518 126.276C117.696 137.466 94.5956 210.343 109.441 226.528C112.708 230.09 114.973 230.005 119.085 232.316Z" fill="#352E48"/>
<path d="M238.955 251.323C233.087 251.323 227.38 250.998 225.489 250.815L223.257 250.613C173.335 246.202 136.11 240.342 118.451 234.12C118.346 234.083 118.245 234.037 118.148 233.982C117.041 233.372 115.902 232.824 114.734 232.338C112.168 231.396 109.868 229.846 108.03 227.822C92.1715 210.53 115.684 137.008 123.95 125.18C124.257 124.74 124.676 124.022 125.222 123.096C129.814 115.286 142.017 94.5386 168.1 89.3244C186.955 84.6018 215.856 86.944 232.084 100.612C257.842 122.301 264.236 158.525 265.062 185.099C265.313 193.226 265.13 229.007 262.573 238.598C261.643 242.093 257.318 247.944 253.6 249.792C251.214 250.979 244.998 251.323 238.955 251.323ZM119.875 230.568C137.306 236.663 174.126 242.433 223.596 246.803L225.865 247.005C232.024 247.618 248.788 247.913 251.9 246.37C254.557 245.048 258.201 240.163 258.877 237.612C261.296 228.551 261.478 192.942 261.239 185.218C260.44 159.425 254.302 124.313 229.619 103.535C214.922 91.1505 187.23 88.4775 168.939 93.053C144.448 97.9494 132.877 117.625 128.523 125.027C127.91 126.069 127.435 126.872 127.091 127.365C119.524 138.197 96.8268 209.934 110.853 225.235C112.331 226.859 114.187 228.094 116.257 228.828C117.492 229.344 118.7 229.925 119.875 230.568Z" fill="black"/>
<path d="M123.604 142.871C122.857 136.155 121.437 128.865 122.44 122.107C125.26 103.08 135.992 87.1538 138.418 67.8249C139.807 56.7675 139.455 42.9112 125.087 43.5256C92.5725 44.9145 90.5639 84.8271 92.4652 108.857C92.9172 114.571 95.3054 132.194 94.0536 134.051C90.7013 130.849 88.1871 121.877 69.0514 118.052C54.0858 116.932 42.8252 127.415 34.6079 137.175C25.5038 147.984 8.71406 181.842 17.1906 211.491C24.8454 238.262 41.1295 257.592 49.9166 263.386C74.7236 279.744 113.855 271.708 123.147 240.118C125.416 232.397 127.154 222.731 125.907 214.715C125.256 210.519 121.05 201.874 121.761 198.15C122.35 195.062 128.15 185.073 130.284 179.246C135.546 164.872 125.123 153.517 123.604 142.871Z" fill="#352E48"/>
<path d="M78.2221 273.55C67.8093 273.606 57.6054 270.625 48.8614 264.972C40.1084 259.197 23.2716 239.712 15.3518 212.006C6.57692 181.32 23.8958 146.918 33.1422 135.933C40.7921 126.846 52.9013 114.946 69.1928 116.135C83.6902 119.021 89.2884 124.803 92.4724 128.945C92.2286 124.844 91.5645 118.726 91.1832 115.185C90.9101 112.657 90.6711 110.45 90.5589 108.997C89.1055 90.6716 89.9761 65.8919 102.358 51.9105C108.065 45.4716 115.681 42.003 125.007 41.6056C130.029 41.3968 133.867 42.771 136.555 45.6934C140.501 49.9755 141.694 57.0816 140.314 68.0561C139.04 78.2147 135.509 87.4964 132.089 96.4733C128.934 104.763 125.671 113.333 124.33 122.379C123.571 127.503 124.293 133.08 124.991 138.47C125.171 139.872 125.35 141.26 125.503 142.624C125.985 145.963 127.454 149.493 128.999 153.227C132.198 160.932 135.827 169.669 132.078 179.895C131.032 182.749 129.207 186.427 127.444 189.983C125.781 193.333 123.897 197.128 123.636 198.499C123.295 200.291 124.716 204.448 125.859 207.791C126.672 209.945 127.318 212.157 127.791 214.409C129.268 223.885 126.663 234.914 124.977 240.647C120.867 254.625 110.839 265.16 96.7489 270.314C90.8101 272.468 84.5397 273.562 78.2221 273.55ZM66.6924 119.845C53.4809 119.845 43.4201 129.679 36.0718 138.401C26.2361 150.08 11.1403 183.354 19.03 210.956C26.671 237.675 42.6763 256.312 50.9691 261.784C63.7311 270.195 80.7745 272.089 95.4402 266.725C108.365 261.997 117.55 252.354 121.314 239.573C122.906 234.146 125.378 223.74 124.016 215C123.573 212.969 122.981 210.973 122.244 209.028C120.82 204.871 119.351 200.576 119.882 197.783C120.226 195.99 121.676 193.006 124.02 188.284C125.739 184.822 127.515 181.241 128.486 178.581C131.718 169.756 128.538 162.099 125.466 154.697C123.814 150.714 122.256 146.965 121.71 143.137C121.71 143.118 121.71 143.1 121.702 143.081C121.553 141.724 121.377 140.35 121.194 138.961C120.463 133.314 119.711 127.472 120.544 121.821C121.945 112.365 125.283 103.595 128.51 95.1161C131.843 86.3489 135.297 77.2842 136.515 67.5823C137.726 57.9431 136.817 51.6309 133.738 48.2859C131.818 46.2022 129.011 45.2684 125.168 45.4285C116.923 45.782 110.212 48.8166 105.222 54.4493C93.1244 68.1081 93.2292 94.3034 94.3688 108.701C94.4843 110.124 94.7167 112.295 94.9858 114.778C96.5587 129.37 96.6928 133.551 95.6361 135.115C95.3207 135.582 94.8151 135.885 94.2542 135.944C93.6917 136.017 93.1276 135.825 92.726 135.425C91.8945 134.57 91.1377 133.646 90.4646 132.661C87.6017 128.752 83.27 122.838 68.6717 119.922C68.006 119.872 67.3468 119.846 66.6924 119.845Z" fill="black"/>
<path fill-rule="evenodd" clip-rule="evenodd" d="M165.845 183.063C173.24 183.066 179.231 189.061 179.228 196.454C179.225 203.847 173.228 209.837 165.834 209.834C158.441 209.831 152.451 203.839 152.451 196.448C152.453 189.054 158.45 183.062 165.845 183.063Z" fill="white"/>
<path fill-rule="evenodd" clip-rule="evenodd" d="M227.665 184.019C235.06 184.021 241.053 190.016 241.051 197.409C241.048 204.802 235.052 210.794 227.657 210.792C220.262 210.789 214.27 204.795 214.271 197.402C214.275 190.009 220.27 184.018 227.665 184.019Z" fill="white"/>
<path fill-rule="evenodd" clip-rule="evenodd" d="M226.394 199.424C236.958 199.429 245.519 207.994 245.514 218.555C245.509 229.117 236.942 237.675 226.378 237.67C215.817 237.666 207.259 229.106 207.259 218.547C207.262 207.984 215.829 199.422 226.394 199.424Z" fill="#352E48"/>
<path fill-rule="evenodd" clip-rule="evenodd" d="M165.845 199.424C176.409 199.428 184.969 207.993 184.965 218.554C184.961 229.116 176.394 237.675 165.83 237.67C155.269 237.666 146.71 229.106 146.71 218.547C146.713 207.985 155.279 199.423 165.845 199.424Z" fill="#352E48"/>
<path d="M216.188 109.209C210.654 107.637 202.108 108.815 202.139 113.726C202.192 121.505 209.49 125.95 216.145 126.833C220.431 127.402 227.634 127.835 230.505 122.614C232.155 119.608 228.04 112.579 216.188 109.209Z" fill="#4C476C"/>
<path d="M196.264 121.659C192.199 120.527 189.914 123.17 191.61 127.348C192.934 130.607 199.049 132.837 202.628 131.112C207.259 128.872 199.861 121.903 196.264 121.659Z" fill="#4C476C"/>
<path d="M96.0392 137.309C96.0392 137.309 115.949 178.78 111.597 200.948C107.246 223.115 101.762 240.43 83.8787 250.404C74.2056 255.797 56.5664 250.382 56.5664 250.382C84.9021 247.483 90.3003 226.407 96.1692 207.603C103.496 184.117 102.432 158.107 96.0392 137.309Z" fill="#0D0C11"/>
<path d="M57.0577 252.304C56.6618 252.304 56.4334 252.29 56.4074 252.286C55.3563 252.181 54.5898 251.244 54.6947 250.194C54.7971 249.172 55.688 248.413 56.7138 248.476C58.1111 248.592 90.0413 250.31 96.9653 191.944C100.026 166.147 93.1042 137.006 92.2564 134.699C91.9052 133.702 92.4287 132.609 93.4261 132.258C94.4064 131.912 95.4826 132.412 95.8517 133.384C96.767 135.886 103.962 165.441 100.762 192.392C93.9301 250.004 62.043 252.304 57.0577 252.304Z" fill="black"/>
<path d="M97.7554 101.89C97.7554 101.89 96.4402 80.972 99.6624 70.0959C102.093 61.8959 109.486 48.2395 116.891 52.1696C124.207 56.0543 107.854 72.3657 104.573 79.4182C102.96 82.8867 97.7554 101.89 97.7554 101.89Z" fill="#59527D"/>
<path d="M69.0522 121.396C69.0522 121.396 45.7416 133.672 37.9528 147.36C29.5713 162.087 19.5666 177.842 23.1586 200.948C26.7165 223.826 41.6245 244.255 41.6245 244.255C41.6245 244.255 32.8723 221.41 36.5554 196.448C43.2193 151.289 69.0522 121.396 69.0522 121.396Z" fill="#59527D"/>
<path d="M174.458 0.0186916L174.417 0.00893967C174.407 0.00650161 174.396 0.00406343 174.386 0C174.41 0.00731417 174.434 0.0130028 174.458 0.0186916Z" fill="white"/>
</svg>
