<svg width="85" height="86" viewBox="0 0 85 86" fill="none" xmlns="http://www.w3.org/2000/svg">
<rect y="0.5" width="85" height="85" rx="42.5" fill="#FDCC9A"/>
<path d="M58.6774 55.6935V43.5C58.6774 41.8992 57.375 40.5968 55.7742 40.5968H52.871V28.4032C52.871 26.8024 51.5686 25.5 49.9677 25.5H27.9032C26.3024 25.5 25 26.8024 25 28.4032V43.5C25 45.1008 26.3024 46.4032 27.9032 46.4032H31.9677V48.7258H30.8065C30.1661 48.7258 29.6452 49.2468 29.6452 49.8871V51.0484C29.6452 51.6887 30.1661 52.2097 30.8065 52.2097H37.7742V55.6935H35.4516V57.4355C35.4516 59.6767 37.2749 61.5 39.5161 61.5H56.9355C59.1767 61.5 61 59.6767 61 57.4355V55.6935H58.6774ZM26.1613 43.5V28.4032C26.1613 27.4428 26.9428 26.6613 27.9032 26.6613H49.9677C50.9282 26.6613 51.7097 27.4428 51.7097 28.4032V40.5968H50.5484V28.9839C50.5484 28.3436 50.0274 27.8226 49.3871 27.8226H28.4839C27.8436 27.8226 27.3226 28.3436 27.3226 28.9839V41.7581C27.3226 42.3984 27.8436 42.9194 28.4839 42.9194H37.8326C37.7944 43.107 37.7742 43.3012 37.7742 43.5V45.2419H31.9677V44.0806H30.8065V45.2419H29.6452V44.0806H28.4839V45.2419H27.9032C26.9428 45.2419 26.1613 44.4605 26.1613 43.5ZM38.3564 41.7581H28.4839V28.9839H49.3871V40.5968H40.6774C39.7297 40.5968 38.8866 41.0534 38.3564 41.7581ZM33.129 46.4032H37.7742V48.7258H33.129V46.4032ZM30.8065 51.0484V49.8871H37.7742V51.0484H30.8065ZM38.9355 43.5C38.9355 42.5395 39.717 41.7581 40.6774 41.7581H55.7742C56.7347 41.7581 57.5161 42.5395 57.5161 43.5V55.6935H38.9355V43.5ZM59.8387 57.4355C59.8387 59.0363 58.5363 60.3387 56.9355 60.3387H39.5161C37.9153 60.3387 36.6129 59.0363 36.6129 57.4355V56.8548H59.8387V57.4355Z" fill="#282431"/>
<path d="M55.1937 42.9199H41.2582C40.6179 42.9199 40.0969 43.4409 40.0969 44.0812V53.3715C40.0969 54.0118 40.6179 54.5328 41.2582 54.5328H55.1937C55.834 54.5328 56.355 54.0118 56.355 53.3715V44.0812C56.355 43.4409 55.834 42.9199 55.1937 42.9199ZM55.1937 53.3715H41.2582V44.0812H55.1937V53.3715Z" fill="#282431"/>
<path d="M56.9356 59.1769C57.2563 59.1769 57.5163 58.917 57.5163 58.5963C57.5163 58.2756 57.2563 58.0156 56.9356 58.0156C56.6149 58.0156 56.355 58.2756 56.355 58.5963C56.355 58.917 56.6149 59.1769 56.9356 59.1769Z" fill="#282431"/>
<path d="M54.6131 59.1769C54.9338 59.1769 55.1938 58.917 55.1938 58.5963C55.1938 58.2756 54.9338 58.0156 54.6131 58.0156C54.2924 58.0156 54.0325 58.2756 54.0325 58.5963C54.0325 58.917 54.2924 59.1769 54.6131 59.1769Z" fill="#282431"/>
<path d="M52.2904 59.1769C52.611 59.1769 52.871 58.917 52.871 58.5963C52.871 58.2756 52.611 58.0156 52.2904 58.0156C51.9697 58.0156 51.7097 58.2756 51.7097 58.5963C51.7097 58.917 51.9697 59.1769 52.2904 59.1769Z" fill="#282431"/>
<path d="M42.8297 44.8311L42.0085 45.6523L48.9762 52.62L49.7974 51.7988L42.8297 44.8311Z" fill="#282431"/>
<path d="M47.475 44.8311L46.6538 45.6523L53.6215 52.62L54.4427 51.7988L47.475 44.8311Z" fill="#282431"/>
<path d="M31.217 31.4767L30.3958 32.2979L37.3634 39.2655L38.1846 38.4443L31.217 31.4767Z" fill="#282431"/>
<path d="M35.8622 31.4767L35.041 32.2979L42.0087 39.2655L42.8299 38.4443L35.8622 31.4767Z" fill="#282431"/>
<path d="M40.5072 31.4767L39.686 32.2979L46.6537 39.2655L47.4749 38.4443L40.5072 31.4767Z" fill="#282431"/>
</svg>
