<svg width="24" height="24" viewBox="0 0 24 24" fill="none" xmlns="http://www.w3.org/2000/svg">
<path d="M17.5 22.15H6.5V9.15L11.7053 2.4007C12.0737 1.9231 12.7778 1.87782 13.2043 2.3043L13.65 2.75C13.7667 2.86667 13.8627 3.025 13.938 3.225C14.0133 3.425 14.0507 3.61667 14.05 3.8V4.15V9.15H20.5C21.0333 9.15 21.5 9.35 21.9 9.75C22.3 10.15 22.5 10.6167 22.5 11.15V13.15C22.5 13.2667 22.4833 13.3917 22.45 13.525C22.4167 13.6583 22.3833 13.7833 22.35 13.9L19.35 20.95C19.2 21.2833 18.95 21.5667 18.6 21.8C18.25 22.0333 17.8833 22.15 17.5 22.15ZM8.5 19.15C8.5 19.7023 8.94772 20.15 9.5 20.15H16.8406C17.2406 20.15 17.6022 19.9116 17.7597 19.5439L20.5 13.15V12.15C20.5 11.5977 20.0523 11.15 19.5 11.15H13.4C12.8477 11.15 12.4 10.7023 12.4 10.15V4.46516L8.5 10V19.15ZM6.5 9.15V11.15H3.5V20.15H6.5V22.15H2.5C1.94772 22.15 1.5 21.7023 1.5 21.15V10.15C1.5 9.59772 1.94772 9.15 2.5 9.15H6.5Z" fill="#352E48"/>
</svg>
