<?xml version="1.0" encoding="UTF-8"?>
<svg version="1.1" viewBox="0 0 562 562" xmlns="http://www.w3.org/2000/svg">
<path d="m275.62 119.1c30.103 0 58.972 11.961 80.258 33.253s33.244 50.17 33.244 80.281v139.55h-227v-139.55c0-30.111 11.958-58.989 33.244-80.281s50.156-33.253 80.258-33.253z" fill="#282431"/>
<path d="m224.37 258.06c7.774 0 14.076-6.303 14.076-14.078 0-7.776-6.302-14.079-14.076-14.079-7.775 0-14.077 6.303-14.077 14.079 0 7.775 6.302 14.078 14.077 14.078z" fill="#fff"/>
<path d="m327.64 258.06c7.774 0 14.077-6.303 14.077-14.078 0-7.776-6.303-14.079-14.077-14.079s-14.076 6.303-14.076 14.079c0 7.775 6.302 14.078 14.076 14.078z" fill="#fff"/>
<path d="m259.42 342.2h-11.651v217.79l11.651 1v-218.79z" fill="#282431"/>
<path d="m308.6 342.2h-11.651v219.29l11.651-1.088z" fill="#282431"/>
<path d="m358.23 342.2h-11.651v211.98l11.998-3.184z" fill="#282431"/>
</svg>
