<svg width="591" height="562" viewBox="0 0 591 562" fill="none" xmlns="http://www.w3.org/2000/svg">
<path d="M590.998 281.902C590.825 325.414 580.557 368.293 561.004 407.164C541.45 446.035 513.145 479.838 478.313 505.914C443.482 531.989 403.076 549.625 360.274 557.434C317.472 565.243 273.442 563.013 231.648 550.917C213.708 545.737 196.344 538.738 179.826 530.027C123.109 500.382 78.2103 452.261 52.5586 393.625C26.9069 334.989 22.0392 269.352 38.7609 207.572C55.4825 145.793 92.7914 91.5739 144.515 53.8852C196.239 16.1964 259.278 -2.70349 323.203 0.312269C472.823 7.12423 591.537 132.124 590.998 281.902Z" fill="#F18128"/>
<path d="M186.879 449C172.552 448.978 158.817 442.648 148.686 431.398C138.555 420.149 132.854 404.898 132.834 388.989V309.011C132.821 296.006 128.168 283.537 119.893 274.333C111.619 265.129 100.397 259.941 88.6854 259.903L0.00012207 260V249L88.6854 249C103.017 249.015 116.758 255.342 126.895 266.592C137.031 277.842 142.735 293.097 142.756 309.011V388.989C143.033 401.805 147.813 413.993 156.074 422.948C164.335 431.904 175.423 436.917 186.968 436.917C198.514 436.917 209.601 431.904 217.862 422.948C226.124 413.993 230.903 401.805 231.181 388.989V335.349H241V388.989C240.987 404.915 235.278 420.183 225.129 431.437C214.98 442.69 201.222 449.008 186.879 449Z" fill="#282431"/>
<path d="M304.621 119.098C334.724 119.098 363.593 131.059 384.879 152.351C406.165 173.643 418.123 202.521 418.123 232.632V372.178H191.119V232.632C191.119 202.521 203.077 173.643 224.363 152.351C245.649 131.059 274.519 119.098 304.621 119.098Z" fill="#282431"/>
<path d="M253.367 258.058C261.141 258.058 267.443 251.755 267.443 243.98C267.443 236.204 261.141 229.901 253.367 229.901C245.592 229.901 239.29 236.204 239.29 243.98C239.29 251.755 245.592 258.058 253.367 258.058Z" fill="white"/>
<path d="M356.637 258.058C364.411 258.058 370.714 251.755 370.714 243.98C370.714 236.204 364.411 229.901 356.637 229.901C348.863 229.901 342.561 236.204 342.561 243.98C342.561 251.755 348.863 258.058 356.637 258.058Z" fill="white"/>
<path d="M288.415 342.196H276.764V559.988L288.415 560.988V342.196Z" fill="#282431"/>
<path d="M337.598 342.197H325.947V561.488L337.598 560.676V342.197Z" fill="#282431"/>
<path d="M387.227 342.197H375.576V554.272L387.574 550.988L387.227 342.197Z" fill="#282431"/>
</svg>
