<?xml version="1.0" encoding="UTF-8" standalone="no"?>
<svg
   width="64"
   height="64"
   fill="none"
   viewBox="0 0 64 64"
   version="1.1"
   id="svg13"
   xmlns="http://www.w3.org/2000/svg"
   xmlns:svg="http://www.w3.org/2000/svg">
  <g
     clip-path="url(#a)"
     id="g6"
     transform="matrix(1.6147096,0,0,1.6147096,-19.672202,-19.582779)">
    <path
       fill="#ff356e"
       d="m 38.633,18.895 c 1.474,-2.571 3.332,-5.348 6.277,-6.325 0.918,-0.383 1.573,0.55 1.84,1.303 1.193,3.215 1.173,6.719 0.936,10.091 -0.538,3.352 -1.61,6.757 -3.853,9.382 -1.642,2.105 -3.808,3.74 -6.2,4.905 a 21.397,21.397 0 0 0 2.75,5.985 c 0.452,0.61 0.603,1.354 0.637,2.108 -0.562,-0.188 -1.172,-0.36 -1.511,-0.88 -2.43,-3.066 -3.548,-6.962 -4.045,-10.784 -0.322,-5.399 0.659,-10.966 3.17,-15.785 z m 0.617,2.351 c -2.104,4.74 -2.601,10.092 -1.94,15.199 3.295,-1.29 5.474,-4.309 7.055,-7.339 1.38,-2.838 1.696,-6.057 1.655,-9.173 -0.017,-1.954 -0.233,-3.953 -1.093,-5.728 -2.598,1.656 -4.477,4.24 -5.676,7.041 z M 16.654,16.132 c 0.326,-1.272 0.555,-2.818 1.769,-3.565 2.115,0.23 3.81,1.693 5.07,3.308 3.212,3.931 4.641,8.99 5.104,13.972 0.336,2.547 -0.01,5.114 -0.35,7.644 2.328,0.805 4.803,0.504 7.203,0.329 0.03,0.453 0.065,0.908 0.106,1.368 -2.506,0.768 -5.121,0.311 -7.661,0.02 -1.21,2.571 -2.146,5.612 -4.665,7.222 -0.09,-0.5 -0.488,-1.069 -0.048,-1.5 1.498,-2.027 2.639,-4.303 3.27,-6.743 C 22.078,36.14 18.568,32.27 17.166,27.626 16.017,23.927 15.925,19.92 16.655,16.132 Z m 1.868,9.58 c 0.782,4.694 4.189,8.574 8.193,10.932 0.268,-1.79 0.446,-3.6 0.285,-5.406 -0.271,-4.123 -1.025,-8.336 -3.151,-11.939 -1.21,-2.022 -2.564,-4.168 -4.8,-5.165 -1.425,3.674 -1.274,7.767 -0.527,11.579 z m 9.145,19.838 c 1.303,-0.285 1.916,1.066 2.8,1.737 0.82,0.844 2.253,0.916 3.175,0.196 0.723,-0.57 1.258,-1.337 1.96,-1.93 0.566,-0.052 0.998,0.548 0.61,1.042 -0.455,1.47 -1.909,2.148 -3.187,2.76 l -0.041,0.343 c 2.238,1.19 4.94,0.696 7.013,-0.6 -0.093,0.686 -0.117,1.584 -0.932,1.814 -2.256,0.727 -4.69,0.329 -6.986,0.03 -2.543,0.419 -5.334,0.889 -7.77,-0.212 0.006,-0.466 0.006,-0.922 0.01,-1.378 2.056,0.967 4.617,1.793 6.67,0.344 -0.432,-0.768 -1.395,-1.004 -1.995,-1.618 -0.782,-0.62 -1.18,-1.563 -1.326,-2.526 V 45.55 Z"
       id="path4" />
  </g>
  <defs
     id="defs11">
    <clipPath
       id="a">
      <rect
         width="64"
         height="64"
         fill="#fff"
         rx="16"
         id="rect8" />
    </clipPath>
  </defs>
</svg>
