<svg width="36" height="36" viewBox="0 0 36 36" fill="none" xmlns="http://www.w3.org/2000/svg">
<path d="M1.7417 31.3549H17.9998V20.9033H1.7417V31.3549ZM2.90299 22.0646H16.8385V30.1936H2.90299V22.0646Z" fill="#352E48"/>
<path d="M19.7419 0C10.7774 0 3.48387 7.29348 3.48387 16.2581C3.48387 17.2248 3.57619 18.198 3.75097 19.1613H1.74194C0.781548 19.1613 0 19.9428 0 20.9032V31.3548C0 32.3152 0.781548 33.0968 1.74194 33.0968H5.80645V34.8387H4.64516V36H5.80645H13.9355H15.0968V34.8387H13.9355V33.0968H18C18.5179 33.0968 18.979 32.8651 19.2983 32.5051C19.4458 32.5092 19.5933 32.5161 19.7419 32.5161C28.7065 32.5161 36 25.2226 36 16.2581C36 7.29348 28.7065 0 19.7419 0ZM18 19.1613H13.2979C12.9966 17.9977 12.827 16.801 12.791 15.5897C13.7224 15.3401 14.4174 14.5295 14.497 13.5406C15.2745 13.4263 16.0583 13.3548 16.8387 13.3548C19.8232 13.3548 22.7195 14.1805 25.2627 15.7285C25.081 16.0601 24.9677 16.4346 24.9677 16.8387C24.9677 17.7538 25.5043 18.5394 26.2754 18.9174C25.0357 22.0111 22.6957 24.617 19.7419 26.1952V20.9032C19.7419 19.9428 18.9604 19.1613 18 19.1613ZM20.2877 1.39819C22.1969 2.52697 23.8175 4.0889 25.0229 5.96148C24.757 6.24368 24.5642 6.59206 24.4661 6.97935C20.3609 7.09665 16.4654 8.64406 13.3966 11.3777C13.3426 11.3446 13.2869 11.3156 13.23 11.2872C14.2084 7.22032 16.7481 3.66271 20.2877 1.39819ZM27.2903 13.6452C27.2903 13.9355 27.2787 14.2275 27.2607 14.519C26.8264 14.5248 26.424 14.6532 26.0785 14.8668C23.3025 13.1226 20.1199 12.1935 16.8387 12.1935C15.9921 12.1935 15.1403 12.2609 14.2978 12.3863C14.2699 12.3265 14.2363 12.2708 14.2037 12.2139C17.0559 9.68806 20.6675 8.25561 24.473 8.14065C24.7372 9.13355 25.6349 9.87097 26.7097 9.87097C26.7283 9.87097 26.7457 9.86574 26.7643 9.86516C27.1068 11.1043 27.2903 12.3724 27.2903 13.6452ZM26.7097 8.70968C26.0692 8.70968 25.5484 8.18884 25.5484 7.54839C25.5484 6.90794 26.0692 6.3871 26.7097 6.3871C27.3501 6.3871 27.871 6.90794 27.871 7.54839C27.871 8.18884 27.3501 8.70968 26.7097 8.70968ZM12.1935 12.1935C12.834 12.1935 13.3548 12.7144 13.3548 13.3548C13.3548 13.9953 12.834 14.5161 12.1935 14.5161C11.5531 14.5161 11.0323 13.9953 11.0323 13.3548C11.0323 12.7144 11.5531 12.1935 12.1935 12.1935ZM11.3603 15.5166C11.448 15.5503 11.538 15.5775 11.6303 15.6008C11.6652 16.8062 11.8231 17.9983 12.103 19.1619H9.58355C10.0202 17.8775 10.6142 16.657 11.3603 15.5166ZM27.2903 18C26.6499 18 26.129 17.4792 26.129 16.8387C26.129 16.1983 26.6499 15.6774 27.2903 15.6774C27.9308 15.6774 28.4516 16.1983 28.4516 16.8387C28.4516 17.4792 27.9308 18 27.2903 18ZM28.4023 14.8123C28.4319 14.4232 28.4516 14.0325 28.4516 13.6452C28.4516 12.2632 28.2519 10.8871 27.8791 9.54348C28.2623 9.31819 28.5718 8.98839 28.7739 8.59064C30.5669 9.02032 32.2508 9.73916 33.7877 10.7338C34.463 12.4461 34.8387 14.3088 34.8387 16.2581C34.8387 18.8094 34.2 21.2133 33.0782 23.3228C32.2618 21.2243 31.0291 19.2844 29.4637 17.6348C29.5554 17.3851 29.6129 17.1192 29.6129 16.8387C29.6129 15.9631 29.1199 15.2083 28.4023 14.8123ZM32.911 8.8891C31.6823 8.25968 30.3823 7.78064 29.023 7.45665C28.9736 6.21929 27.9592 5.22581 26.7097 5.22581C26.4635 5.22581 26.2301 5.27458 26.0071 5.346C25.0264 3.8189 23.7908 2.48226 22.3577 1.39239C26.8903 2.18845 30.7318 5.01039 32.911 8.8891ZM18.5203 1.21471C15.3174 3.64471 13.0314 7.12335 12.0954 11.0421C10.861 11.095 9.87097 12.1076 9.87097 13.3548C9.87097 13.4541 9.88839 13.5482 9.9 13.644C7.96877 14.4848 6.1891 15.6815 4.67535 17.1575C4.65735 16.8573 4.64516 16.5571 4.64516 16.2581C4.64516 8.34561 10.7657 1.83948 18.5203 1.21471ZM4.842 18.6544C6.37374 16.9792 8.25677 15.6315 10.3274 14.724C10.3558 14.7623 10.3877 14.7977 10.4185 14.8349C9.53245 16.1803 8.84148 17.6307 8.36013 19.1613H4.92852C4.89542 18.9929 4.86929 18.8234 4.842 18.6544ZM12.7742 34.8387H6.96774V33.0968H12.7742V34.8387ZM13.9355 31.9355H5.80645H1.74194C1.422 31.9355 1.16129 31.6748 1.16129 31.3548V20.9032C1.16129 20.5833 1.422 20.3226 1.74194 20.3226H3.99426H18C18.3199 20.3226 18.5806 20.5833 18.5806 20.9032V31.3548C18.5806 31.4193 18.5632 31.4785 18.5441 31.5366C18.5342 31.5633 18.5243 31.59 18.511 31.6167C18.414 31.8037 18.2241 31.9355 18 31.9355H13.9355ZM19.7419 29.8097C20.5537 30.3236 21.4003 30.7666 22.2782 31.1377C21.4531 31.2776 20.6065 31.3548 19.7419 31.3548V29.8097ZM24.3087 30.647C22.6852 30.1541 21.1483 29.4132 19.7419 28.4319V27.5011C23.2589 25.8021 26.0379 22.7717 27.4297 19.1474C27.9447 19.116 28.4104 18.918 28.7814 18.6045C30.3788 20.3371 31.5888 22.3978 32.3059 24.6165C30.4206 27.4413 27.6091 29.5972 24.3087 30.647Z" fill="#352E48"/>
</svg>
