<svg width="39" height="36" viewBox="0 0 39 36" fill="none" xmlns="http://www.w3.org/2000/svg">
<path d="M7.64416 22.8293L16.6342 21.0309L11.9179 32.4848L15.2682 31.8148L23.5036 19.6263C28.4773 18.4455 33.1558 16.4119 37.4094 13.5757C37.7174 13.3712 38.0052 13.1351 38.2659 12.8744C38.977 12.1633 38.977 11.0063 38.2659 10.2951C36.6051 8.63434 34.3966 7.71916 32.0477 7.71958C30.9642 7.71916 29.902 7.91665 28.8854 8.30752L24.117 10.2011L13.7548 5.64205L10.4583 6.30103L17.1314 12.9742L9.13538 16.1492L9.14072 16.1627L2.03608 13.7945L0.550605 15.28L5.19958 19.9289L2.73611 25.677L4.78038 27.7213L7.63636 22.7886L7.64416 22.8293ZM13.818 30.9213L19.0414 18.2361L23.8558 17.0323L14.5731 30.7698L13.818 30.9213ZM32.0477 8.88069C34.0866 8.88069 36.0032 9.67475 37.4447 11.1163C37.703 11.3745 37.703 11.795 37.4447 12.0532C37.2382 12.2597 37.0095 12.4474 36.7656 12.61C32.985 15.1301 28.8583 16.9937 24.4848 18.1745L26.5147 15.1699L18.1907 17.2507L17.1655 19.7401L8.38361 21.4969L9.63711 19.332L11.2256 17.7434L10.3848 16.9026L29.3075 9.38899C30.1849 9.0519 31.1067 8.88069 32.0477 8.88069ZM12.8142 7.01461L13.6234 6.85243L22.6011 10.803L18.3073 12.5077L12.8142 7.01461ZM2.19292 15.28L2.34976 15.1231L9.26964 17.4297L9.58332 17.7434L8.8759 18.4509L6.06631 19.1534L2.19292 15.28ZM4.11319 25.4118L6.30855 20.2898L7.98289 19.871L4.53239 25.831L4.11319 25.4118Z" fill="#352E48"/>
<path d="M34.9007 12.0317L35.5265 11.0537C34.4922 10.3914 33.2892 10.0408 32.0476 10.0408C31.2511 10.0408 30.469 10.1857 29.725 10.4723L30.1417 11.5558C30.7531 11.3205 31.3944 11.2015 32.0476 11.2019C33.0671 11.2023 34.0537 11.4893 34.9007 12.0317Z" fill="#352E48"/>
<path d="M36 34.8389H0V36.0002H36V34.8389Z" fill="#352E48"/>
<path d="M12.868 17.7433L12.0469 18.5645L12.868 19.3856L13.6892 18.5645L12.868 17.7433Z" fill="#352E48"/>
<path d="M15.7421 16.5109L14.9209 17.332L15.7421 18.1532L16.5632 17.332L15.7421 16.5109Z" fill="#352E48"/>
</svg>
