<?xml version="1.0" encoding="utf-8"?>
<!-- Generator: Adobe Illustrator 24.0.2, SVG Export Plug-In . SVG Version: 6.00 Build 0)  -->
<svg version="1.1" id="Слой_1" xmlns="http://www.w3.org/2000/svg" xmlns:xlink="http://www.w3.org/1999/xlink" x="0px" y="0px"
	 width="512px" height="512px" viewBox="100 0 612 512" style="enable-background:new 0 0 512 512;" xml:space="preserve">
<style type="text/css">
	.st1{fill:#FFFFFF;}
	.st2{fill:none;stroke:#FFFFFF;stroke-width:13;stroke-linecap:round;stroke-linejoin:round;}
	.st3{fill:#352E48;}
	.st4{fill:#4C476B;}
	.st5{fill-rule:evenodd;clip-rule:evenodd;fill:#FFFFFF;}
	.st6{fill:#352E48;stroke:#000000;stroke-width:3;stroke-miterlimit:10;}
</style>
<g>
	<path class="st1" d="M353.784,346.781c-1.649-1.33-3.785-1.899-5.877-1.565c-3.511,0.349-6.751,2.041-9.044,4.722
		c-2.679,3.583-3.674,7.152-4.729,10.927c-0.852,3.637-2.233,7.129-4.1,10.365c-0.89,1.45-4.33,3.044-7.623,2.988
		c-1.5-0.024-3.486-0.394-4.412-2.012c-4.635-8.122-6.032-29.959-6.612-48.316c1.856,0.169,3.559,0.305,5.072,0.4
		c0.63,0.041,1.228,0.077,1.794,0.1c6.949,0.347,13.326-3.836,15.775-10.348c5.49-14.439,9.092-42.84,10.711-84.415
		c1.047-26.953-6.022-73.524-65.135-82.586c-46.136-7.08-79.687,22.365-89.618,78.784c-0.056,0.319-0.123,0.62-0.209,0.934
		c-2.376,8.756-5.953,30.077-7.218,46.024c-5.589,2.258-10.889,5.174-15.788,8.686c0,0-19.455,10.341-26.271,32.699
		s4.295,47.748,16.042,58.737s36.015,10.085,48.436-8.92c7.575-11.59,17.234-49.81,18.666-55.583
		c3.469,0.921,7.053,1.813,10.711,2.674c1.353,34.791-0.771,108.256-4.023,136.625c-0.268,2.343-0.633,4.8-1,7.3
		c-1.278,8.607-2.727,18.36-0.6,26.638c1.376,5.363,4.626,11.26,9.615,11.716c0.468,0.048,0.941,0.04,1.407-0.023
		c4.625-0.641,6.115-6.817,6.947-10.275l0.162-0.67c2.59-10.444,2.928-19.47,3.321-29.919l0.186-4.752
		c1.821-44.488,3.711-100.183,2.411-132.671c4.513,0.894,9.028,1.734,13.476,2.519c1.076,36.082-1.013,105.484-4.152,132.861
		c-0.268,2.343-0.632,4.8-1,7.306c-1.278,8.607-2.727,18.36-0.6,26.638c1.376,5.363,4.625,11.257,9.616,11.722
		c0.466,0.044,0.936,0.034,1.4-0.029c4.62-0.64,6.111-6.805,6.947-10.255l0.165-0.687c2.589-10.453,2.93-19.485,3.324-29.943
		l0.185-4.74c1.768-43.24,3.6-97.066,2.509-129.881c2.891,0.431,5.7,0.831,8.4,1.2c0.369,21.364,2.325,41.1,5.771,56.682
		c1.335,5.644,4.927,10.494,9.937,13.416c5.732,3.394,12.46,4.706,19.047,3.714c1.245-0.173,2.478-0.419,3.693-0.738
		c16.3-4.252,25.613-14.39,26.92-29.32C358.6,363.238,359.316,351.648,353.784,346.781z M182.091,358.505
		c-12.719,4.927-32.375-15.537-24.417-35.813s18.568-16.481,34.484-22.924c0.951-0.384,1.871-0.769,2.758-1.155
		c3.439,1.601,6.958,3.026,10.542,4.27C204.1,309.12,193.922,353.923,182.091,358.505z"/>
	<path class="st2" d="M353.784,346.781c-1.649-1.33-3.785-1.899-5.877-1.565c-3.511,0.349-6.751,2.041-9.044,4.722
		c-2.679,3.583-3.674,7.152-4.729,10.927c-0.852,3.637-2.233,7.129-4.1,10.365c-0.89,1.45-4.33,3.044-7.623,2.988
		c-1.5-0.024-3.486-0.394-4.412-2.012c-4.635-8.122-6.032-29.959-6.612-48.316c1.856,0.169,3.559,0.305,5.072,0.4
		c0.63,0.041,1.228,0.077,1.794,0.1c6.949,0.347,13.326-3.836,15.775-10.348c5.49-14.439,9.092-42.84,10.711-84.415
		c1.047-26.953-6.022-73.524-65.135-82.586c-46.136-7.08-79.687,22.365-89.618,78.784c-0.056,0.319-0.123,0.62-0.209,0.934
		c-2.376,8.756-5.953,30.077-7.218,46.024c-5.589,2.258-10.889,5.174-15.788,8.686c0,0-19.455,10.341-26.271,32.699
		s4.295,47.748,16.042,58.737s36.015,10.085,48.436-8.92c7.575-11.59,17.234-49.81,18.666-55.583
		c3.469,0.921,7.053,1.813,10.711,2.674c1.353,34.791-0.771,108.256-4.023,136.625c-0.268,2.343-0.633,4.8-1,7.3
		c-1.278,8.607-2.727,18.36-0.6,26.638c1.376,5.363,4.626,11.26,9.615,11.716c0.468,0.048,0.941,0.04,1.407-0.023
		c4.625-0.641,6.115-6.817,6.947-10.275l0.162-0.67c2.59-10.444,2.928-19.47,3.321-29.919l0.186-4.752
		c1.821-44.488,3.711-100.183,2.411-132.671c4.513,0.894,9.028,1.734,13.476,2.519c1.076,36.082-1.013,105.484-4.152,132.861
		c-0.268,2.343-0.632,4.8-1,7.306c-1.278,8.607-2.727,18.36-0.6,26.638c1.376,5.363,4.625,11.257,9.616,11.722
		c0.466,0.044,0.936,0.034,1.4-0.029c4.62-0.64,6.111-6.805,6.947-10.255l0.165-0.687c2.589-10.453,2.93-19.485,3.324-29.943
		l0.185-4.74c1.768-43.24,3.6-97.066,2.509-129.881c2.891,0.431,5.7,0.831,8.4,1.2c0.369,21.364,2.325,41.1,5.771,56.682
		c1.335,5.644,4.927,10.494,9.937,13.416c5.732,3.394,12.46,4.706,19.047,3.714c1.245-0.173,2.478-0.419,3.693-0.738
		c16.3-4.252,25.613-14.39,26.92-29.32C358.6,363.238,359.316,351.648,353.784,346.781z M182.091,358.505
		c-12.719,4.927-32.375-15.537-24.417-35.813s18.568-16.481,34.484-22.924c0.951-0.384,1.871-0.769,2.758-1.155
		c3.439,1.601,6.958,3.026,10.542,4.27C204.1,309.12,193.922,353.923,182.091,358.505z"/>
	<g id="_406">
		<g id="_407">
			<path class="st3" d="M234.327,294.214c3.805,17.029,1.224,120.678-2.558,153.653c-1.2,10.47-4.289,23.1-1.641,33.415
				c1,3.888,3.686,10.205,8.344,10.634c4.791,0.444,6.129-6.477,6.972-9.872c2.885-11.651,2.946-21.759,3.438-33.721
				c1.448-35.377,5.975-144.936-0.669-158.182L234.327,294.214z"/>
			<path d="M239.743,493.337c-0.466,0.063-0.938,0.071-1.406,0.023c-4.99-0.456-8.24-6.353-9.616-11.716
				c-2.125-8.278-0.676-18.031,0.6-26.638c0.371-2.509,0.736-4.962,1-7.3c3.974-34.668,6.265-136.692,2.582-153.17
				c-0.168-0.747,0.274-1.495,1.009-1.709l13.888-4.074c0.674-0.204,1.397,0.11,1.707,0.743c6.069,12.1,3.39,96.1,0.846,158.23
				l-0.186,4.752c-0.393,10.449-0.731,19.475-3.321,29.919l-0.162,0.67C245.858,486.52,244.368,492.7,239.743,493.337z
				 M236,295.237c3.589,21.15,0.763,121.794-2.789,152.8c-0.273,2.373-0.641,4.856-1.019,7.4c-1.3,8.741-2.639,17.78-0.659,25.489
				c1.079,4.2,3.577,9.225,7.067,9.546c3,0.281,4.285-4.029,5.263-8.085l0.168-0.688c2.516-10.156,2.851-19.042,3.237-29.332
				l0.187-4.761c3.766-92.047,3.735-144.384-0.091-155.7L236,295.237z"/>
		</g>
	</g>
	<g id="_408">
		<g id="_409">
			<path class="st3" d="M266.094,296.944c3.806,17.029,1.225,120.678-2.557,153.653c-1.2,10.47-4.289,23.1-1.642,33.415
				c1,3.888,3.687,10.2,8.344,10.635c4.791,0.443,6.129-6.478,6.972-9.872c2.885-11.652,2.946-21.759,3.438-33.722
				c1.449-35.377,5.975-144.935-0.669-158.182L266.094,296.944z"/>
			<path d="M271.508,496.067c-0.464,0.063-0.934,0.073-1.4,0.029c-4.991-0.465-8.24-6.359-9.616-11.722
				c-2.125-8.278-0.676-18.031,0.6-26.638c0.371-2.509,0.735-4.963,1-7.306c3.973-34.658,6.267-136.68,2.583-153.169
				c-0.168-0.747,0.274-1.495,1.009-1.709l13.885-4.074c0.673-0.2,1.393,0.112,1.707,0.74c6.072,12.1,3.392,96.1,0.851,158.224
				l-0.185,4.74c-0.394,10.458-0.735,19.49-3.324,29.943l-0.165,0.687C277.619,489.262,276.128,495.427,271.508,496.067z
				 M267.771,297.967c3.589,21.154,0.764,121.8-2.789,152.8c-0.273,2.372-0.641,4.855-1.019,7.4
				c-1.3,8.741-2.639,17.78-0.659,25.488c1.079,4.2,3.577,9.226,7.07,9.549c3,0.294,4.277-4.024,5.257-8.07l0.171-0.706
				c2.515-10.161,2.849-19.052,3.237-29.352l0.186-4.749c3.767-92.038,3.734-144.372-0.093-155.691L267.771,297.967z"/>
		</g>
	</g>
	<g id="_410">
		<g id="_411">
			<path class="st3" d="M296.111,275.05c-2.934,34.133-2.394,73.652,4.111,103.076c2.615,11.844,16.624,19.023,30.894,15.3
				c15.048-3.926,24.52-12.962,25.839-28.04c0.445-5.077,0.074-13.818-4.131-17.513c-3.424-3.009-10.533-0.094-12.8,2.933
				c-4.856,6.494-3.927,13.283-8.758,21.181c-2.1,3.424-11.775,5.773-14.535,0.938c-6.824-11.959-6.8-50.788-7.3-69.738
				c-0.16-6.154,1.074-29.932,1.074-29.932S299.686,275.355,296.111,275.05z"/>
			<path d="M327.79,395.569c-6.587,0.992-13.315-0.32-19.047-3.714c-5.01-2.922-8.602-7.772-9.937-13.416
				c-5.881-26.587-7.429-65.284-4.14-103.514c0.064-0.794,0.759-1.385,1.553-1.321c0.006,0,0.011,0.001,0.017,0.001
				c2.762,0.236,11.046-1.205,14-1.775c0.439-0.105,0.902,0.018,1.231,0.328c0.338,0.293,0.522,0.725,0.5,1.171
				c-0.012,0.24-1.226,23.794-1.071,29.822c0.056,2.121,0.1,4.491,0.157,7.042c0.4,19.341,1.07,51.712,6.949,62.013
				c0.926,1.618,2.911,1.988,4.412,2.012c3.293,0.056,6.733-1.538,7.623-2.988c1.867-3.236,3.248-6.728,4.1-10.365
				c1.055-3.775,2.05-7.344,4.729-10.927c2.293-2.681,5.533-4.372,9.044-4.722c2.092-0.334,4.228,0.235,5.877,1.565
				c5.532,4.867,4.819,16.457,4.619,18.73c-1.307,14.93-10.616,25.068-26.92,29.32C330.27,395.15,329.036,395.396,327.79,395.569z
				 M297.445,276.522c-3.11,37.512-1.553,75.285,4.195,101.289c1.17,4.872,4.285,9.053,8.619,11.568
				c6.196,3.603,13.583,4.556,20.491,2.643c15.223-3.972,23.552-12.975,24.76-26.762c0.491-5.608-0.169-13.239-3.646-16.3
				c-1.052-0.768-2.37-1.078-3.654-0.859c-2.695,0.306-5.188,1.575-7.02,3.574c-2.354,3.148-3.278,6.461-4.257,9.971
				c-0.918,3.898-2.409,7.638-4.422,11.1c-1.544,2.517-5.988,4.431-10.149,4.375c-3.192-0.05-5.637-1.287-6.886-3.479
				c-6.246-10.941-6.9-42.5-7.333-63.389c-0.052-2.548-0.1-4.913-0.158-7.027c-0.132-5.206,0.7-22.475,0.984-28.209
				C305.161,275.746,301.313,276.249,297.445,276.522z"/>
		</g>
	</g>
	<g id="_412">
		<g id="_413">
			<path class="st3" d="M279.37,148.555c-44.221-6.781-77.716,19.774-87.884,77.546c-0.064,0.363-0.141,0.708-0.238,1.064
				c-3.394,12.509-8.682,47.673-7.447,60.1c1.632,16.436,100.412,33.92,134.526,35.606c6.287,0.303,12.052-3.482,14.273-9.371
				c6.389-16.808,9.29-50.063,10.608-83.931C344.507,196.217,332.446,156.693,279.37,148.555z"/>
			<path d="M316.457,324.293c-30.056-1.941-132.326-18.279-134.174-36.877c-1.291-12.989,4.234-48.643,7.492-60.651
				c0.086-0.314,0.153-0.615,0.209-0.934c9.931-56.419,43.482-85.864,89.618-78.784l0,0c59.113,9.062,66.182,55.633,65.135,82.586
				c-1.619,41.575-5.221,69.976-10.711,84.415c-2.448,6.514-8.825,10.699-15.775,10.352
				C317.685,324.369,317.087,324.333,316.457,324.293z M271.258,149.2c-40.778-2.633-69.1,25.068-78.268,77.167
				c-0.074,0.413-0.159,0.8-0.272,1.2c-3.492,12.871-8.563,47.829-7.4,59.546c1.451,14.576,96.631,32.389,133.081,34.232
				c5.628,0.279,10.792-3.111,12.775-8.386c5.369-14.127,8.908-42.2,10.511-83.448c1.009-25.937-5.777-70.746-62.548-79.45l0,0
				C276.465,149.651,273.839,149.364,271.258,149.2z"/>
		</g>
	</g>
	<path id="_396" class="st4" d="M264.48,202.582c-2.279,6.07,19.439,9.707,17.487,3.974
		C279.664,199.8,267.185,196.345,264.48,202.582z"/>
	<path id="_394" class="st4" d="M285.881,180.52c-24.441,8.556,12.561,30.138,22.832,15.6
		C317.907,183.107,294.676,177.45,285.881,180.52z"/>
	<g id="_427">
		<g id="_428">
			<path class="st5" d="M298.383,247.688c7.846,1.718,12.814,9.472,11.096,17.318c-1.718,7.846-9.472,12.814-17.318,11.096
				c-7.71-1.688-12.666-9.218-11.169-16.967C282.633,251.173,290.419,246.047,298.383,247.688z"/>
		</g>
	</g>
	<g id="_429">
		<g id="_430">
			<path class="st5" d="M228.813,237.947c7.847,1.718,12.815,9.471,11.097,17.318c-1.718,7.847-9.471,12.815-17.318,11.097
				c-7.71-1.688-12.667-9.218-11.17-16.967C213.064,241.432,220.85,236.307,228.813,237.947z"/>
		</g>
	</g>
	<path class="st6" d="M166.768,281.475c0,0,26.148-19.449,37.516-7.02s3.79,18.871-12.126,25.313s-26.526,2.647-34.484,22.924
		s11.7,40.74,24.417,35.813s23.524-56.349,23.524-56.349l18.2,5.511c0,0-10.646,43.77-18.847,56.318
		c-12.421,19-36.689,19.91-48.436,8.92s-22.863-36.379-16.042-58.737S166.768,281.475,166.768,281.475z"/>
	<g id="_431">
		<g id="_432">
			<path d="M263.181,291.445c-0.842-0.176-1.382-1-1.206-1.842c0.171-0.818,0.956-1.355,1.78-1.218
				c10.348,1.941,15.782-3.755,16.01-4c0.58-0.633,1.564-0.677,2.197-0.097c0.633,0.58,0.677,1.564,0.097,2.197l0,0
				C281.789,286.788,275.3,293.719,263.181,291.445z"/>
		</g>
	</g>

<g transform="translate(-700 425) rotate(200) scale(-1.3 1.6) skewX(60)">
	<path class="st5" d="M200.478,353.812c-1.983-8.416-8.947-16.363-16.743-21.7c-4.491-3.035-9.794-4.643-15.214-4.613h-0.138v4.493
		c6.827,2.981,11.392,9.554,11.8,16.992c-7.916-1.181-15.909-1.767-23.912-1.751c-38.414,0-69.555,12.92-69.555,28.859
		s31.141,28.858,69.555,28.858s69.555-12.92,69.555-28.858C225.822,367.12,215.955,359.105,200.478,353.812z"/>
	<path d="M156.267,406.439c-39.837,0-71.041-13.33-71.041-30.347s31.2-30.348,71.041-30.348c7.437-0.012,14.866,0.487,22.234,1.493
		c-0.942-6.161-4.987-11.405-10.708-13.879c-0.546-0.235-0.9-0.772-0.9-1.366V327.5c-0.002-0.82,0.662-1.486,1.482-1.488
		c0.001,0,0.002,0,0.003,0c5.767-0.058,11.415,1.641,16.192,4.872c8.68,5.942,15.029,14.03,17.146,21.786
		c16.273,5.725,25.586,14.237,25.586,23.423C227.306,393.109,196.1,406.439,156.267,406.439z M156.267,348.72
		c-36.9,0-68.071,12.535-68.071,27.372s31.172,27.371,68.071,27.371s68.069-12.535,68.069-27.371
		c0-7.975-8.872-15.582-24.336-20.872c-0.484-0.165-0.849-0.568-0.966-1.066c-1.72-7.294-7.752-15.074-16.137-20.812
		c-3.859-2.621-8.37-4.117-13.03-4.322v2.019c6.885,3.368,11.402,10.205,11.8,17.859c0.026,0.447-0.151,0.883-0.482,1.185
		c-0.328,0.308-0.78,0.445-1.224,0.371C172.117,349.285,164.197,348.705,156.267,348.72z"/>
</g>
<text style="font-style:normal;font-weight:normal;font-size:32px;line-height:1.25;font-family:sans-serif;letter-spacing:0px;word-spacing:0px;fill:#000;fill-opacity:1;stroke:none">
<tspan x="450px" y="230">Ой!</tspan>
</text>
</g>
</svg>
