<svg width="1043" height="349" viewBox="0 0 1043 349" fill="none" xmlns="http://www.w3.org/2000/svg">
<path fill-rule="evenodd" clip-rule="evenodd" d="M342.473 67.4165H329.83V29.4H322.812V20.567H329.83V16.4103C329.83 12.8598 330.528 9.87217 331.923 7.44743C333.347 4.99382 335.338 3.14639 337.895 1.90516C340.482 0.635052 343.548 0 347.094 0C348.256 0 349.375 0.086598 350.45 0.259794C351.526 0.404124 352.572 0.591753 353.589 0.822681L353.458 10.2186C352.906 10.0742 352.325 9.9732 351.714 9.91547C351.104 9.85774 350.392 9.82887 349.578 9.82887C348.067 9.82887 346.774 10.0887 345.699 10.6083C344.652 11.099 343.853 11.8351 343.301 12.8165C342.749 13.7979 342.473 14.9959 342.473 16.4103V20.567H351.889V29.4H342.473V67.4165ZM227.254 66.5506C229.098 65.5329 230.694 64.1566 232.042 62.4214L232.66 67.4165H244.038V0.909279H231.396V24.8272C230.192 23.4239 228.812 22.2925 227.254 21.433C225.191 20.2784 222.779 19.701 220.018 19.701C217.082 19.701 214.467 20.2784 212.171 21.433C209.875 22.5876 207.942 24.2186 206.373 26.3258C204.803 28.433 203.612 30.9588 202.798 33.9031C201.984 36.8186 201.578 40.066 201.578 43.6454V44.5547C201.578 47.9609 201.984 51.1073 202.798 53.9939C203.612 56.8805 204.789 59.3918 206.329 61.5279C207.899 63.664 209.817 65.3238 212.084 66.5073C214.38 67.6908 216.995 68.2825 219.931 68.2825C222.721 68.2825 225.162 67.7052 227.254 66.5506ZM230.306 32.7773C230.722 33.3094 231.086 33.8981 231.396 34.5436V53.4774C230.681 54.9549 229.693 56.1373 228.431 57.0248C227.036 57.9774 225.263 58.4536 223.113 58.4536C221.456 58.4536 220.047 58.1073 218.884 57.4145C217.751 56.6928 216.821 55.6969 216.094 54.4268C215.397 53.1279 214.888 51.6413 214.568 49.967C214.278 48.2928 214.133 46.4887 214.133 44.5547V43.6454C214.133 41.6536 214.292 39.8062 214.612 38.1031C214.961 36.3712 215.484 34.8701 216.181 33.6C216.908 32.3299 217.853 31.334 219.015 30.6124C220.178 29.8619 221.573 29.4866 223.2 29.4866C224.799 29.4866 226.179 29.7753 227.341 30.3526C228.533 30.9299 229.521 31.7382 230.306 32.7773ZM35.1802 47.8887C35.5289 48.7835 35.7033 49.7938 35.7033 50.9196C35.7033 52.3341 35.34 53.6042 34.6134 54.7299C33.9159 55.8557 32.8261 56.7361 31.3439 57.3712C29.8908 58.0062 28.0308 58.3237 25.7639 58.3237C23.9039 58.3237 22.1892 58.1361 20.6199 57.7609C19.0795 57.3856 17.7427 56.7794 16.6092 55.9423C15.5048 55.1052 14.6475 54.0083 14.0372 52.6516C13.4269 51.2949 13.1217 49.6351 13.1217 47.6722H0C0 51.2227 0.741094 54.2969 2.22328 56.8949C3.70547 59.4928 5.68172 61.6289 8.15203 63.3031C10.6514 64.9774 13.4269 66.233 16.4784 67.0701C19.53 67.8784 22.6252 68.2825 25.7639 68.2825C29.2514 68.2825 32.4047 67.8928 35.2238 67.1134C38.0428 66.3341 40.4695 65.1939 42.5039 63.6928C44.5383 62.1918 46.0931 60.3588 47.1685 58.1939C48.2438 56.0289 48.7814 53.5753 48.7814 50.833C48.7814 48.2351 48.331 45.9114 47.43 43.8619C46.5291 41.8124 45.1922 39.9794 43.4194 38.3629C41.6466 36.7464 39.4378 35.2887 36.7931 33.9897C34.1775 32.6907 31.1405 31.5217 27.682 30.4825C25.6186 29.8474 23.8022 29.198 22.2328 28.534C20.6634 27.8701 19.3411 27.1629 18.2658 26.4124C17.1905 25.6619 16.3767 24.8536 15.8245 23.9876C15.3014 23.1217 15.0398 22.1547 15.0398 21.0866C15.0398 19.6722 15.4177 18.4021 16.1733 17.2763C16.9289 16.1217 18.0623 15.2124 19.5736 14.5485C21.0848 13.8557 22.9739 13.5093 25.2408 13.5093C27.5949 13.5093 29.542 13.9134 31.0824 14.7217C32.6517 15.5299 33.8142 16.6412 34.5699 18.0557C35.3545 19.4413 35.7469 21.0577 35.7469 22.9052H48.7378C48.7378 19.1526 47.7642 15.8186 45.817 12.9031C43.8989 9.98763 41.1961 7.69279 37.7086 6.01856C34.2211 4.34433 30.1378 3.50722 25.4588 3.50722C22.0294 3.50722 18.8761 3.92578 15.9989 4.76289C13.1508 5.6 10.6805 6.79794 8.58797 8.35671C6.49547 9.8866 4.86797 11.734 3.70547 13.899C2.54297 16.0351 1.96172 18.4165 1.96172 21.0433C1.96172 23.7567 2.51391 26.1382 3.61828 28.1876C4.75172 30.2371 6.29203 32.0413 8.23922 33.6C10.2155 35.1299 12.4823 36.4722 15.0398 37.6268C17.6264 38.7815 20.3583 39.8206 23.2355 40.7444C25.822 41.5526 27.9291 42.332 29.5566 43.0825C31.1841 43.833 32.4483 44.598 33.3492 45.3773C34.2502 46.1279 34.8605 46.965 35.1802 47.8887ZM69.4449 63.3478V85.4289H56.8899V20.567H68.5294L68.9981 25.1785C70.274 23.6172 71.7598 22.3687 73.4555 21.433C75.5771 20.2784 78.0619 19.701 80.91 19.701C83.9035 19.701 86.5336 20.2639 88.8005 21.3897C91.0964 22.5155 93.0146 24.132 94.5549 26.2392C96.1242 28.3464 97.3013 30.8578 98.086 33.7732C98.8997 36.6887 99.3066 39.9217 99.3066 43.4722V44.3815C99.3066 47.7877 98.8997 50.9485 98.086 53.864C97.3013 56.7794 96.1388 59.3196 94.5985 61.4846C93.0582 63.6207 91.14 65.2949 88.8441 66.5073C86.5772 67.6908 83.9616 68.2825 80.9972 68.2825C78.12 68.2825 75.6207 67.7052 73.4991 66.5506C71.9753 65.7212 70.6238 64.6536 69.4449 63.3478ZM69.4449 53.6833C70.1095 55.0784 71.0541 56.2067 72.2785 57.0681C73.6735 58.0495 75.5044 58.5402 77.7713 58.5402C79.4278 58.5402 80.8228 58.1794 81.9563 57.4578C83.0897 56.7073 84.0052 55.6825 84.7027 54.3835C85.4292 53.0846 85.9378 51.5835 86.2285 49.8804C86.5481 48.1774 86.708 46.3444 86.708 44.3815V43.4722C86.708 41.4804 86.5336 39.6474 86.1849 37.9732C85.8652 36.2701 85.3421 34.7835 84.6155 33.5134C83.918 32.2433 82.988 31.2619 81.8255 30.5691C80.6921 29.8474 79.3116 29.4866 77.6841 29.4866C75.9694 29.4866 74.5017 29.7608 73.2811 30.3093C72.0895 30.8578 71.116 31.6516 70.3603 32.6907C70.0159 33.1644 69.7108 33.68 69.4449 34.2376V53.6833ZM128.82 68.2825C125.158 68.2825 121.874 67.7052 118.967 66.5506C116.061 65.3671 113.591 63.7361 111.556 61.6578C109.551 59.5794 108.011 57.1691 106.936 54.4268C105.86 51.6557 105.323 48.7114 105.323 45.5938V43.8619C105.323 40.3114 105.831 37.0639 106.848 34.1196C107.866 31.1753 109.319 28.6206 111.208 26.4557C113.126 24.2907 115.451 22.6309 118.183 21.4763C120.915 20.2928 123.995 19.701 127.425 19.701C130.767 19.701 133.731 20.2495 136.318 21.3464C138.904 22.4433 141.069 24.0021 142.813 26.0227C144.586 28.0433 145.923 30.4681 146.824 33.2969C147.725 36.0969 148.175 39.2145 148.175 42.6495V47.8454H118.055C118.182 48.8765 118.399 49.858 118.706 50.7897C119.258 52.3774 120.028 53.7485 121.016 54.9031C122.033 56.0578 123.254 56.9526 124.678 57.5877C126.131 58.2227 127.773 58.5402 129.604 58.5402C131.871 58.5402 133.978 58.1073 135.925 57.2413C137.902 56.3464 139.602 55.0042 141.026 53.2145L147.129 59.7959C146.141 61.2104 144.789 62.5671 143.075 63.866C141.389 65.165 139.355 66.233 136.972 67.0701C134.588 67.8784 131.871 68.2825 128.82 68.2825ZM118.444 38.1464C118.354 38.5966 118.275 39.0584 118.208 39.532H135.838V38.5794C135.838 36.8474 135.518 35.3031 134.879 33.9464C134.269 32.5608 133.339 31.4639 132.089 30.6557C130.839 29.8474 129.241 29.4433 127.294 29.4433C125.637 29.4433 124.213 29.8041 123.022 30.5258C121.83 31.2474 120.856 32.2578 120.101 33.5567C119.374 34.8557 118.822 36.3856 118.444 38.1464ZM167.182 66.5506C170.088 67.7052 173.372 68.2825 177.034 68.2825C180.086 68.2825 182.803 67.8784 185.186 67.0701C187.569 66.233 189.604 65.165 191.289 63.866C193.004 62.5671 194.356 61.2104 195.344 59.7959L189.241 53.2145C187.816 55.0042 186.116 56.3464 184.14 57.2413C182.193 58.1073 180.086 58.5402 177.819 58.5402C175.988 58.5402 174.346 58.2227 172.893 57.5877C171.469 56.9526 170.248 56.0578 169.231 54.9031C168.243 53.7485 167.473 52.3774 166.921 50.7897C166.614 49.858 166.397 48.8765 166.27 47.8454H196.39V42.6495C196.39 39.2145 195.939 36.0969 195.038 33.2969C194.138 30.4681 192.801 28.0433 191.028 26.0227C189.284 24.0021 187.119 22.4433 184.532 21.3464C181.946 20.2495 178.981 19.701 175.639 19.701C172.21 19.701 169.129 20.2928 166.397 21.4763C163.666 22.6309 161.341 24.2907 159.422 26.4557C157.533 28.6206 156.08 31.1753 155.063 34.1196C154.046 37.0639 153.537 40.3114 153.537 43.8619V45.5938C153.537 48.7114 154.075 51.6557 155.15 54.4268C156.226 57.1691 157.766 59.5794 159.771 61.6578C161.806 63.7361 164.276 65.3671 167.182 66.5506ZM166.422 39.532C166.489 39.0584 166.568 38.5966 166.659 38.1464C167.037 36.3856 167.589 34.8557 168.316 33.5567C169.071 32.2578 170.045 31.2474 171.236 30.5258C172.428 29.8041 173.852 29.4433 175.508 29.4433C177.456 29.4433 179.054 29.8474 180.304 30.6557C181.553 31.4639 182.484 32.5608 183.094 33.9464C183.733 35.3031 184.053 36.8474 184.053 38.5794V39.532H166.422ZM274.074 43.5588V44.4681C274.074 47.8743 274.568 51.0351 275.556 53.9506C276.544 56.8372 277.983 59.3629 279.872 61.5279C281.79 63.664 284.13 65.3238 286.891 66.5073C289.681 67.6908 292.863 68.2825 296.438 68.2825C300.012 68.2825 303.18 67.6908 305.941 66.5073C308.702 65.3238 311.027 63.664 312.916 61.5279C314.834 59.3629 316.287 56.8372 317.275 53.9506C318.264 51.0351 318.758 47.8743 318.758 44.4681V43.5588C318.758 40.1237 318.264 36.9629 317.275 34.0763C316.287 31.1608 314.834 28.6351 312.916 26.499C311.027 24.3629 308.687 22.7031 305.897 21.5196C303.107 20.3072 299.925 19.701 296.35 19.701C292.776 19.701 289.608 20.3072 286.847 21.5196C284.086 22.7031 281.761 24.3629 279.872 26.499C277.983 28.6351 276.544 31.1608 275.556 34.0763C274.568 36.9629 274.074 40.1237 274.074 43.5588ZM286.629 44.4681V43.5588C286.629 41.6536 286.803 39.8639 287.152 38.1897C287.501 36.4866 288.053 34.9856 288.809 33.6866C289.593 32.3588 290.596 31.3196 291.817 30.5691C293.066 29.8186 294.578 29.4433 296.35 29.4433C298.123 29.4433 299.634 29.8186 300.884 30.5691C302.134 31.3196 303.137 32.3588 303.892 33.6866C304.677 34.9856 305.244 36.4866 305.592 38.1897C305.97 39.8639 306.159 41.6536 306.159 43.5588V44.4681C306.159 46.431 305.97 48.264 305.592 49.967C305.244 51.6701 304.691 53.1712 303.936 54.4701C303.18 55.7402 302.177 56.7361 300.928 57.4578C299.678 58.1794 298.181 58.5402 296.438 58.5402C294.636 58.5402 293.11 58.1794 291.86 57.4578C290.611 56.7361 289.593 55.7402 288.809 54.4701C288.053 53.1712 287.501 51.6701 287.152 49.967C286.803 48.264 286.629 46.431 286.629 44.4681ZM431.317 46.5031H418.282C418.108 49.0433 417.541 51.165 416.582 52.8681C415.652 54.5712 414.301 55.8557 412.528 56.7217C410.755 57.5877 408.503 58.0207 405.771 58.0207C403.446 58.0207 401.455 57.6021 399.798 56.765C398.171 55.899 396.834 54.6289 395.788 52.9547C394.771 51.2516 394.015 49.1732 393.521 46.7196C393.027 44.2371 392.78 41.365 392.78 38.1031V33.6433C392.78 30.2949 393.041 27.3794 393.564 24.8969C394.117 22.3856 394.945 20.3072 396.049 18.6619C397.154 17.0165 398.52 15.7897 400.147 14.9815C401.775 14.1732 403.678 13.7691 405.858 13.7691C408.764 13.7691 411.089 14.2309 412.833 15.1546C414.606 16.0495 415.928 17.3918 416.8 19.1815C417.672 20.9423 418.18 23.0928 418.326 25.633H431.404C430.997 21.3608 429.776 17.5505 427.742 14.2021C425.737 10.8536 422.903 8.22681 419.241 6.32165C415.608 4.4165 411.147 3.46392 405.858 3.46392C401.876 3.46392 398.273 4.17114 395.047 5.58557C391.821 7 389.045 9.02062 386.72 11.6474C384.424 14.2742 382.652 17.4639 381.402 21.2165C380.181 24.9402 379.571 29.1114 379.571 33.7299V38.1031C379.571 42.7217 380.167 46.8928 381.358 50.6165C382.55 54.3402 384.279 57.5155 386.546 60.1423C388.842 62.7691 391.603 64.7897 394.829 66.2042C398.055 67.5897 401.702 68.2825 405.771 68.2825C410.973 68.2825 415.419 67.3588 419.11 65.5114C422.83 63.664 425.722 61.0949 427.786 57.8042C429.878 54.5134 431.055 50.7464 431.317 46.5031ZM480.185 32.3011V43.1691H464.404V61.0949H452.503V43.1691H436.679V32.3011H452.503V15.1979H464.404V32.3011H480.185ZM528.836 43.1691V32.3011H513.055V15.1979H501.154V32.3011H485.329V43.1691H501.154V61.0949H513.055V43.1691H528.836ZM35.7033 143.581C35.7033 142.456 35.5289 141.445 35.1802 140.55C34.8605 139.627 34.2502 138.79 33.3492 138.039C32.4483 137.26 31.1841 136.495 29.5566 135.744C27.9291 134.994 25.822 134.214 23.2355 133.406C20.3583 132.482 17.6264 131.443 15.0398 130.289C12.4823 129.134 10.2155 127.792 8.23922 126.262C6.29203 124.703 4.75172 122.899 3.61828 120.849C2.51391 118.8 1.96172 116.419 1.96172 113.705C1.96172 111.078 2.54297 108.697 3.70547 106.561C4.86797 104.396 6.49547 102.548 8.58797 101.019C10.6805 99.4597 13.1508 98.2618 15.9989 97.4247C18.8761 96.5876 22.0294 96.169 25.4588 96.169C30.1378 96.169 34.2211 97.0061 37.7086 98.6804C41.1961 100.355 43.8989 102.649 45.817 105.565C47.7642 108.48 48.7378 111.814 48.7378 115.567H35.7469C35.7469 113.72 35.3545 112.103 34.5699 110.717C33.8142 109.303 32.6517 108.192 31.0824 107.383C29.542 106.575 27.5949 106.171 25.2408 106.171C22.9739 106.171 21.0848 106.517 19.5736 107.21C18.0623 107.874 16.9289 108.783 16.1733 109.938C15.4177 111.064 15.0398 112.334 15.0398 113.748C15.0398 114.816 15.3014 115.783 15.8245 116.649C16.3767 117.515 17.1905 118.324 18.2658 119.074C19.3411 119.825 20.6634 120.532 22.2328 121.196C23.8022 121.86 25.6186 122.509 27.682 123.144C31.1405 124.183 34.1775 125.353 36.7931 126.652C39.4378 127.95 41.6466 129.408 43.4194 131.025C45.1922 132.641 46.5291 134.474 47.43 136.524C48.331 138.573 48.7814 140.897 48.7814 143.495C48.7814 146.237 48.2438 148.691 47.1685 150.856C46.0931 153.021 44.5383 154.854 42.5039 156.355C40.4695 157.856 38.0428 158.996 35.2238 159.775C32.4047 160.555 29.2514 160.944 25.7639 160.944C22.6252 160.944 19.53 160.54 16.4784 159.732C13.4269 158.895 10.6514 157.639 8.15203 155.965C5.68172 154.291 3.70547 152.155 2.22328 149.557C0.741094 146.959 0 143.885 0 140.334H13.1217C13.1217 142.297 13.4269 143.957 14.0372 145.313C14.6475 146.67 15.5048 147.767 16.6092 148.604C17.7427 149.441 19.0795 150.047 20.6199 150.423C22.1892 150.798 23.9039 150.986 25.7639 150.986C28.0308 150.986 29.8908 150.668 31.3439 150.033C32.8261 149.398 33.9159 148.518 34.6134 147.392C35.34 146.266 35.7033 144.996 35.7033 143.581ZM70.1424 160.078V113.229H57.5438V160.078H70.1424ZM58.6772 96.5154C57.3985 97.6989 56.7591 99.2 56.7591 101.019C56.7591 102.837 57.3985 104.338 58.6772 105.522C59.956 106.705 61.6706 107.297 63.8213 107.297C65.9428 107.297 67.643 106.705 68.9217 105.522C70.2296 104.338 70.8835 102.837 70.8835 101.019C70.8835 99.2 70.2296 97.6989 68.9217 96.5154C67.643 95.3319 65.9428 94.7402 63.8213 94.7402C61.6706 94.7402 59.956 95.3319 58.6772 96.5154ZM93.0727 160.078V126.849C93.248 126.525 93.437 126.213 93.6394 125.915C94.4241 124.732 95.4122 123.808 96.6038 123.144C97.8244 122.48 99.2485 122.148 100.876 122.148C102.358 122.148 103.622 122.379 104.669 122.841C105.744 123.303 106.572 124.111 107.153 125.266C107.735 126.421 108.025 128.066 108.025 130.202V160.078H120.58V128.816C120.58 128.35 120.571 127.894 120.554 127.448C120.863 126.736 121.235 126.08 121.67 125.482C122.426 124.443 123.37 123.635 124.504 123.058C125.637 122.452 126.96 122.148 128.471 122.148C129.924 122.148 131.174 122.379 132.22 122.841C133.295 123.274 134.109 124.068 134.661 125.223C135.242 126.348 135.533 127.994 135.533 130.159V160.078H148.132V130.159C148.132 126.897 147.768 124.14 147.042 121.889C146.344 119.637 145.327 117.819 143.99 116.433C142.682 115.019 141.098 113.994 139.238 113.359C137.378 112.695 135.315 112.363 133.048 112.363C130.084 112.363 127.468 112.926 125.201 114.052C122.934 115.148 121.031 116.693 119.491 118.685C119.269 118.977 119.055 119.276 118.848 119.582C118.234 118.258 117.475 117.136 116.57 116.216C115.32 114.889 113.823 113.922 112.08 113.315C110.336 112.68 108.418 112.363 106.325 112.363C103.303 112.363 100.643 112.926 98.3475 114.052C96.135 115.136 94.2598 116.65 92.722 118.593L92.288 113.229H80.4741V160.078H93.0727ZM170.408 156.01V178.091H157.853V113.229H169.493L169.961 117.84C171.237 116.279 172.723 115.031 174.419 114.095C176.54 112.94 179.025 112.363 181.873 112.363C184.867 112.363 187.497 112.926 189.764 114.052C192.06 115.177 193.978 116.794 195.518 118.901C197.087 121.008 198.264 123.52 199.049 126.435C199.863 129.35 200.27 132.583 200.27 136.134V137.043C200.27 140.449 199.863 143.61 199.049 146.526C198.264 149.441 197.102 151.981 195.562 154.146C194.021 156.282 192.103 157.957 189.807 159.169C187.54 160.353 184.925 160.944 181.96 160.944C179.083 160.944 176.584 160.367 174.462 159.212C172.938 158.383 171.587 157.315 170.408 156.01ZM170.408 146.345C171.073 147.74 172.017 148.868 173.242 149.73C174.637 150.711 176.468 151.202 178.734 151.202C180.391 151.202 181.786 150.841 182.919 150.12C184.053 149.369 184.968 148.344 185.666 147.045C186.392 145.746 186.901 144.245 187.192 142.542C187.511 140.839 187.671 139.006 187.671 137.043V136.134C187.671 134.142 187.497 132.309 187.148 130.635C186.828 128.932 186.305 127.445 185.579 126.175C184.881 124.905 183.951 123.924 182.789 123.231C181.655 122.509 180.275 122.148 178.647 122.148C176.933 122.148 175.465 122.423 174.244 122.971C173.053 123.52 172.079 124.313 171.323 125.353C170.979 125.826 170.674 126.342 170.408 126.899V146.345ZM221.326 93.5711V160.078H208.727V93.5711H221.326ZM244.953 160.078V113.229H232.355V160.078H244.953ZM233.488 96.5154C232.209 97.6989 231.57 99.2 231.57 101.019C231.57 102.837 232.209 104.338 233.488 105.522C234.767 106.705 236.482 107.297 238.632 107.297C240.754 107.297 242.454 106.705 243.733 105.522C245.041 104.338 245.694 102.837 245.694 101.019C245.694 99.2 245.041 97.6989 243.733 96.5154C242.454 95.3319 240.754 94.7402 238.632 94.7402C236.482 94.7402 234.767 95.3319 233.488 96.5154ZM274.815 151.202C276.355 151.202 277.721 150.913 278.913 150.336C280.104 149.73 281.034 148.893 281.703 147.825C282.4 146.728 282.764 145.443 282.793 143.971H294.607C294.578 147.262 293.691 150.192 291.947 152.761C290.204 155.301 287.864 157.307 284.929 158.779C281.994 160.223 278.709 160.944 275.077 160.944C271.415 160.944 268.218 160.338 265.486 159.126C262.783 157.913 260.531 156.239 258.729 154.103C256.927 151.938 255.576 149.427 254.675 146.569C253.774 143.682 253.323 140.594 253.323 137.303V136.047C253.323 132.728 253.774 129.639 254.675 126.781C255.576 123.895 256.927 121.383 258.729 119.247C260.531 117.082 262.783 115.394 265.486 114.181C268.189 112.969 271.357 112.363 274.989 112.363C278.855 112.363 282.241 113.099 285.147 114.571C288.082 116.043 290.378 118.15 292.035 120.893C293.72 123.606 294.578 126.825 294.607 130.548H282.793C282.764 128.99 282.429 127.575 281.79 126.305C281.18 125.035 280.279 124.025 279.087 123.274C277.925 122.495 276.486 122.105 274.771 122.105C272.941 122.105 271.444 122.495 270.281 123.274C269.119 124.025 268.218 125.064 267.579 126.392C266.939 127.691 266.489 129.177 266.227 130.852C265.995 132.497 265.878 134.229 265.878 136.047V137.303C265.878 139.122 265.995 140.868 266.227 142.542C266.46 144.216 266.896 145.703 267.535 147.002C268.203 148.301 269.119 149.326 270.281 150.076C271.444 150.827 272.955 151.202 274.815 151.202ZM315.139 160.078V113.229H302.541V160.078H315.139ZM303.674 96.5154C302.395 97.6989 301.756 99.2 301.756 101.019C301.756 102.837 302.395 104.338 303.674 105.522C304.953 106.705 306.668 107.297 308.818 107.297C310.94 107.297 312.64 106.705 313.919 105.522C315.226 104.338 315.88 102.837 315.88 101.019C315.88 99.2 315.226 97.6989 313.919 96.5154C312.64 95.3319 310.94 94.7402 308.818 94.7402C306.668 94.7402 304.953 95.3319 303.674 96.5154ZM348.619 113.229V122.062H340.511V145.963C340.511 147.32 340.685 148.359 341.034 149.08C341.412 149.802 341.964 150.307 342.691 150.596C343.417 150.856 344.333 150.986 345.437 150.986C346.222 150.986 346.919 150.957 347.529 150.899C348.169 150.812 348.707 150.726 349.142 150.639L349.186 159.819C348.111 160.165 346.948 160.439 345.699 160.641C344.449 160.843 343.068 160.944 341.557 160.944C338.796 160.944 336.384 160.497 334.321 159.602C332.286 158.678 330.717 157.206 329.612 155.186C328.508 153.165 327.956 150.509 327.956 147.219V122.062H321.155V113.229H327.956V101.668H340.511V113.229H348.619ZM367.643 160.227L351.061 113.229H364.531L373.414 142.664L382.274 113.229H395.744L376.781 167.136C376.374 168.32 375.822 169.59 375.124 170.946C374.456 172.303 373.54 173.588 372.378 174.8C371.245 176.041 369.806 177.052 368.062 177.831C366.347 178.61 364.24 179 361.741 179C360.549 179 359.576 178.928 358.82 178.784C358.065 178.639 357.164 178.437 356.117 178.177V169.041H357.12C357.469 169.07 357.803 169.085 358.123 169.085C359.779 169.085 361.131 168.897 362.177 168.522C363.223 168.146 364.066 167.569 364.705 166.79C365.345 166.039 365.853 165.058 366.231 163.845L367.643 160.227ZM420.985 137.13V136.221C420.985 132.786 421.479 129.625 422.467 126.738C423.455 123.823 424.894 121.297 426.783 119.161C428.672 117.025 430.997 115.365 433.758 114.181C436.519 112.969 439.687 112.363 443.261 112.363C446.836 112.363 450.018 112.969 452.808 114.181C455.598 115.365 457.938 117.025 459.827 119.161C461.745 121.297 463.198 123.823 464.186 126.738C465.175 129.625 465.669 132.786 465.669 136.221V137.13C465.669 140.536 465.175 143.697 464.186 146.612C463.198 149.499 461.745 152.025 459.827 154.19C457.938 156.326 455.613 157.986 452.852 159.169C450.091 160.353 446.923 160.944 443.349 160.944C439.774 160.944 436.592 160.353 433.802 159.169C431.041 157.986 428.701 156.326 426.783 154.19C424.894 152.025 423.455 149.499 422.467 146.612C421.479 143.697 420.985 140.536 420.985 137.13ZM433.54 136.221V137.13C433.54 139.093 433.714 140.926 434.063 142.629C434.412 144.332 434.964 145.833 435.72 147.132C436.504 148.402 437.522 149.398 438.771 150.12C440.021 150.841 441.547 151.202 443.349 151.202C445.092 151.202 446.589 150.841 447.839 150.12C449.088 149.398 450.091 148.402 450.847 147.132C451.602 145.833 452.155 144.332 452.503 142.629C452.881 140.926 453.07 139.093 453.07 137.13V136.221C453.07 134.315 452.881 132.526 452.503 130.852C452.155 129.148 451.588 127.647 450.803 126.348C450.047 125.021 449.045 123.981 447.795 123.231C446.545 122.48 445.034 122.105 443.261 122.105C441.489 122.105 439.977 122.48 438.728 123.231C437.507 123.981 436.504 125.021 435.72 126.348C434.964 127.647 434.412 129.148 434.063 130.852C433.714 132.526 433.54 134.315 433.54 136.221ZM476.741 160.078H489.384V122.062H498.8V113.229H489.384V109.072C489.384 107.658 489.66 106.46 490.212 105.478C490.764 104.497 491.563 103.761 492.61 103.27C493.685 102.75 494.978 102.491 496.489 102.491C497.303 102.491 498.015 102.52 498.625 102.577C499.236 102.635 499.817 102.736 500.369 102.88L500.5 93.4845C499.483 93.2536 498.437 93.0659 497.361 92.9216C496.286 92.7484 495.167 92.6618 494.005 92.6618C490.459 92.6618 487.393 93.2969 484.806 94.567C482.249 95.8082 480.258 97.6556 478.834 100.109C477.439 102.534 476.741 105.522 476.741 109.072V113.229H469.723V122.062H476.741V160.078ZM553.118 137.606H541.478V160.078H528.4V97.035H553.118C558.087 97.035 562.345 97.9298 565.891 99.7195C569.465 101.48 572.197 103.92 574.086 107.037C575.975 110.155 576.92 113.72 576.92 117.732C576.92 121.802 575.975 125.324 574.086 128.297C572.197 131.27 569.465 133.565 565.891 135.181C562.345 136.798 558.087 137.606 553.118 137.606ZM541.478 107.21V127.474H553.118C555.617 127.474 557.651 127.07 559.221 126.262C560.79 125.425 561.938 124.27 562.665 122.798C563.391 121.326 563.755 119.666 563.755 117.819C563.755 115.942 563.391 114.196 562.665 112.579C561.938 110.963 560.79 109.664 559.221 108.682C557.651 107.701 555.617 107.21 553.118 107.21H541.478ZM597.731 160.227L581.148 113.229H594.619L603.502 142.664L612.362 113.229H625.832L606.869 167.136C606.462 168.32 605.91 169.59 605.212 170.946C604.544 172.303 603.628 173.588 602.466 174.8C601.332 176.041 599.894 177.052 598.15 177.831C596.435 178.61 594.328 179 591.829 179C590.637 179 589.664 178.928 588.908 178.784C588.153 178.639 587.252 178.437 586.205 178.177V169.041H587.208C587.557 169.07 587.891 169.085 588.211 169.085C589.867 169.085 591.219 168.897 592.265 168.522C593.311 168.146 594.154 167.569 594.793 166.79C595.433 166.039 595.941 165.058 596.319 163.845L597.731 160.227ZM653.95 113.229V122.062H645.842V145.963C645.842 147.32 646.016 148.359 646.365 149.08C646.743 149.802 647.295 150.307 648.021 150.596C648.748 150.856 649.663 150.986 650.768 150.986C651.552 150.986 652.25 150.957 652.86 150.899C653.5 150.812 654.037 150.726 654.473 150.639L654.517 159.819C653.441 160.165 652.279 160.439 651.029 160.641C649.78 160.843 648.399 160.944 646.888 160.944C644.127 160.944 641.715 160.497 639.651 159.602C637.617 158.678 636.048 157.206 634.943 155.186C633.839 153.165 633.287 150.509 633.287 147.219V122.062H626.486V113.229H633.287V101.668H645.842V113.229H653.95ZM673.349 118.426V93.5711H660.794V160.078H673.349V126.566C673.473 126.342 673.604 126.126 673.742 125.915C674.497 124.732 675.5 123.808 676.75 123.144C678.028 122.48 679.569 122.148 681.37 122.148C682.998 122.148 684.364 122.408 685.468 122.928C686.602 123.419 687.459 124.27 688.04 125.482C688.651 126.666 688.956 128.297 688.956 130.375V160.078H701.598V130.462C701.598 127.171 701.22 124.371 700.465 122.062C699.709 119.753 698.634 117.891 697.239 116.476C695.873 115.033 694.231 113.994 692.313 113.359C690.424 112.695 688.316 112.363 685.991 112.363C683.318 112.363 680.876 112.926 678.668 114.052C676.628 115.105 674.855 116.564 673.349 118.426ZM709.14 137.13V136.221C709.14 132.786 709.634 129.625 710.622 126.738C711.61 123.823 713.049 121.297 714.938 119.161C716.827 117.025 719.152 115.365 721.913 114.181C724.674 112.969 727.841 112.363 731.416 112.363C734.991 112.363 738.173 112.969 740.963 114.181C743.753 115.365 746.093 117.025 747.982 119.161C749.9 121.297 751.353 123.823 752.341 126.738C753.329 129.625 753.823 132.786 753.823 136.221V137.13C753.823 140.536 753.329 143.697 752.341 146.612C751.353 149.499 749.9 152.025 747.982 154.19C746.093 156.326 743.768 157.986 741.007 159.169C738.246 160.353 735.078 160.944 731.503 160.944C727.929 160.944 724.746 160.353 721.956 159.169C719.195 157.986 716.856 156.326 714.938 154.19C713.049 152.025 711.61 149.499 710.622 146.612C709.634 143.697 709.14 140.536 709.14 137.13ZM721.695 136.221V137.13C721.695 139.093 721.869 140.926 722.218 142.629C722.567 144.332 723.119 145.833 723.874 147.132C724.659 148.402 725.676 149.398 726.926 150.12C728.176 150.841 729.701 151.202 731.503 151.202C733.247 151.202 734.744 150.841 735.993 150.12C737.243 149.398 738.246 148.402 739.001 147.132C739.757 145.833 740.309 144.332 740.658 142.629C741.036 140.926 741.225 139.093 741.225 137.13V136.221C741.225 134.315 741.036 132.526 740.658 130.852C740.309 129.148 739.742 127.647 738.958 126.348C738.202 125.021 737.2 123.981 735.95 123.231C734.7 122.48 733.189 122.105 731.416 122.105C729.643 122.105 728.132 122.48 726.882 123.231C725.662 123.981 724.659 125.021 723.874 126.348C723.119 127.647 722.567 129.148 722.218 130.852C721.869 132.526 721.695 134.315 721.695 136.221ZM773.833 126.844V160.078H761.278V113.229H773.048L773.488 118.83C773.573 118.722 773.659 118.616 773.746 118.511C775.373 116.52 777.306 115.004 779.544 113.965C781.81 112.897 784.339 112.363 787.129 112.363C789.338 112.363 791.358 112.68 793.189 113.315C795.019 113.95 796.589 114.961 797.897 116.346C799.233 117.732 800.251 119.565 800.948 121.845C801.675 124.126 802.038 126.911 802.038 130.202V149H890.685C905.017 149.015 918.758 155.342 928.895 166.592C939.031 177.842 944.735 193.097 944.756 209.011V288.989C945.033 301.805 949.813 313.993 958.074 322.948C966.335 331.904 977.423 336.917 988.968 336.917C1000.51 336.917 1011.6 331.904 1019.86 322.948C1028.12 313.993 1032.9 301.805 1033.18 288.989V235.349H1043V288.989C1042.99 304.915 1037.28 320.183 1027.13 331.437C1016.98 342.69 1003.22 349.008 988.879 349C974.552 348.978 960.817 342.648 950.686 331.398C940.555 320.149 934.854 304.898 934.834 288.989V209.011C934.821 196.006 930.167 183.537 921.893 174.333C913.619 165.129 902.397 159.941 890.685 159.903L802.038 160H802H801.154C794.462 160 789.063 154.527 789.155 147.836L789.396 130.159C789.396 128.08 789.105 126.464 788.524 125.309C787.943 124.155 787.085 123.346 785.952 122.885C784.848 122.394 783.482 122.148 781.854 122.148C780.169 122.148 778.701 122.48 777.451 123.144C776.231 123.808 775.213 124.732 774.4 125.915C774.198 126.212 774.009 126.521 773.833 126.844Z" fill="#352E48"/>
</svg>
