<svg width="36" height="36" viewBox="0 0 36 36" fill="none" xmlns="http://www.w3.org/2000/svg">
<g clip-path="url(#clip0_1429_92)">
<path d="M8.61081 4.23358C8.44532 3.8341 8.09345 3.54552 7.66842 3.46249C7.61791 3.45262 7.579 3.41371 7.56913 3.36203C7.48552 2.93816 7.19694 2.58629 6.79803 2.42081C6.39797 2.25533 5.94565 2.30003 5.58681 2.54158C5.54384 2.5712 5.4881 2.5712 5.44513 2.54158C5.08687 2.30062 4.63397 2.25649 4.23391 2.42081C3.83442 2.58629 3.54584 2.93816 3.46281 3.3632C3.45294 3.41371 3.41403 3.45262 3.36236 3.46249C2.93849 3.54552 2.58661 3.8341 2.42113 4.23358C2.25565 4.63307 2.30094 5.08597 2.54191 5.44481C2.57094 5.48778 2.57094 5.54352 2.54191 5.58649C2.30094 5.94533 2.25565 6.39823 2.42113 6.79771C2.58661 7.1972 2.93849 7.48578 3.36352 7.56881C3.41403 7.57868 3.45294 7.61758 3.46281 7.66926C3.54642 8.09313 3.835 8.445 4.23391 8.61049C4.63397 8.77539 5.08571 8.73126 5.44513 8.48971C5.4881 8.46068 5.54384 8.4601 5.58681 8.48971C5.80281 8.63487 6.05307 8.7092 6.30449 8.7092C6.47113 8.7092 6.63836 8.6761 6.79803 8.61049C7.19752 8.445 7.4861 8.09313 7.56913 7.6681C7.579 7.61758 7.61791 7.57868 7.66958 7.56881C8.09345 7.4852 8.44532 7.19662 8.61081 6.79771C8.77629 6.39881 8.731 5.94533 8.49003 5.58649C8.461 5.54352 8.461 5.48778 8.49003 5.44481C8.731 5.08597 8.77629 4.63249 8.61081 4.23358ZM7.52616 6.23391C7.55752 6.28036 7.54997 6.32449 7.53836 6.35294C7.52616 6.38197 7.5012 6.41797 7.44661 6.429C6.92926 6.52945 6.53036 6.92836 6.42991 7.44455C6.41887 7.50029 6.38287 7.52584 6.35384 7.53746C6.32539 7.54965 6.28126 7.5572 6.23481 7.52526C6.01649 7.37836 5.76623 7.3052 5.51655 7.3052C5.26687 7.3052 5.01662 7.37836 4.79829 7.52526C4.75126 7.55778 4.70829 7.54907 4.67926 7.53746C4.65023 7.52584 4.61423 7.50029 4.6032 7.44571C4.50274 6.92836 4.10384 6.52945 3.58765 6.429C3.53191 6.41797 3.50636 6.38197 3.49474 6.35294C3.48255 6.32449 3.47558 6.28036 3.50694 6.23391C3.80016 5.79726 3.80016 5.23345 3.50694 4.79681C3.47558 4.75036 3.48313 4.70623 3.49474 4.67778C3.50694 4.64874 3.53191 4.61274 3.58649 4.60171C4.10384 4.50126 4.50274 4.10236 4.6032 3.58616C4.61423 3.53042 4.65023 3.50487 4.67926 3.49326C4.70771 3.48165 4.75126 3.4741 4.79829 3.50545C5.23494 3.79926 5.79874 3.79926 6.23539 3.50545C6.28242 3.4741 6.32655 3.48223 6.35442 3.49326C6.38345 3.50545 6.41945 3.53042 6.43049 3.585C6.53094 4.10236 6.92984 4.50126 7.44603 4.60171C7.50178 4.61274 7.52732 4.64874 7.53894 4.67778C7.55113 4.70623 7.5581 4.75036 7.52674 4.79681C7.23294 5.23404 7.23294 5.79726 7.52616 6.23391Z" fill="#352E48"/>
<path d="M33.4578 30.4136C33.6988 30.0547 33.7441 29.6018 33.5786 29.2023C33.4131 28.8029 33.0612 28.5143 32.6362 28.4312C32.5857 28.4214 32.5468 28.3825 32.5369 28.3308C32.4533 27.9069 32.1647 27.555 31.7658 27.3896C31.3663 27.2241 30.9134 27.2688 30.5546 27.5103C30.5122 27.5394 30.4565 27.5405 30.4129 27.5103C30.0541 27.2694 29.6023 27.2247 29.2017 27.3896C28.8022 27.555 28.5136 27.9069 28.4306 28.3319C28.4207 28.3825 28.3818 28.4214 28.3301 28.4312C27.9063 28.5149 27.5544 28.8034 27.3889 29.2023C27.2234 29.6012 27.2687 30.0547 27.5097 30.4136C27.5387 30.4565 27.5387 30.5123 27.5097 30.5552C27.2687 30.9141 27.2234 31.367 27.3889 31.7665C27.5544 32.1659 27.9063 32.4545 28.3313 32.5376C28.3818 32.5474 28.4207 32.5863 28.4306 32.638C28.5142 33.0619 28.8028 33.4138 29.2017 33.5792C29.6012 33.7441 30.0541 33.6994 30.4129 33.4585C30.4553 33.4294 30.511 33.4283 30.5546 33.4585C30.7706 33.6036 31.0208 33.6779 31.2723 33.6779C31.4389 33.6779 31.6061 33.6449 31.7658 33.5792C32.1653 33.4138 32.4539 33.0619 32.5369 32.6369C32.5468 32.5863 32.5857 32.5474 32.6374 32.5376C33.0612 32.4539 33.4131 32.1654 33.5786 31.7665C33.7441 31.3676 33.6988 30.9141 33.4578 30.5552C33.4288 30.5123 33.4288 30.4565 33.4578 30.4136ZM32.4939 31.2027C32.5253 31.2491 32.5177 31.2932 32.5061 31.3217C32.4939 31.3507 32.469 31.3867 32.4144 31.3978C31.897 31.4982 31.4981 31.8971 31.3977 32.4133C31.3866 32.469 31.3506 32.4946 31.3216 32.5062C31.2926 32.5178 31.2496 32.5259 31.2026 32.494C30.9843 32.3471 30.734 32.2739 30.4843 32.2739C30.2346 32.2739 29.9844 32.3471 29.7661 32.494C29.7196 32.5259 29.6755 32.5184 29.647 32.5062C29.618 32.494 29.582 32.469 29.571 32.4145C29.4705 31.8971 29.0716 31.4982 28.5554 31.3978C28.4997 31.3867 28.4741 31.3507 28.4625 31.3217C28.4503 31.2932 28.4434 31.2491 28.4747 31.2027C28.7679 30.766 28.7679 30.2022 28.4747 29.7656C28.4434 29.7191 28.4509 29.675 28.4625 29.6465C28.4747 29.6175 28.4997 29.5815 28.5543 29.5705C29.0716 29.47 29.4705 29.0711 29.571 28.5549C29.582 28.4992 29.618 28.4736 29.647 28.462C29.6755 28.4498 29.719 28.4423 29.7661 28.4742C30.2027 28.768 30.7665 28.768 31.2032 28.4742C31.2502 28.4423 31.2937 28.451 31.3222 28.462C31.3512 28.4742 31.3872 28.4992 31.3983 28.5538C31.4987 29.0711 31.8976 29.47 32.4138 29.5705C32.4696 29.5815 32.4951 29.6175 32.5067 29.6465C32.5189 29.675 32.5259 29.7191 32.4945 29.7656C32.2007 30.2028 32.2007 30.766 32.4939 31.2027Z" fill="#352E48"/>
<path d="M30.4839 24.9677C29.9578 24.9677 29.4341 25.045 28.9219 25.1977L21.7248 18L28.9225 10.8023C30.0025 11.1234 31.1388 11.1054 32.2322 10.7472C33.8737 10.2077 35.1761 8.90535 35.7155 7.26329C36.1144 6.04974 36.0912 4.78103 35.6505 3.59477L35.3352 2.74703L31.4756 6.60658C31.2486 6.83361 30.8816 6.83361 30.6546 6.60658L29.3934 5.34542C29.167 5.11897 29.167 4.75084 29.3934 4.52439L33.253 0.664839L32.4052 0.349548C31.2184 -0.0917419 29.9503 -0.114387 28.7361 0.284516C27.0946 0.823935 25.7923 2.12632 25.2528 3.76839C24.8946 4.86058 24.8766 5.9969 25.1977 7.07748L18 14.2752L10.8023 7.07806C10.955 6.56594 11.0323 6.04219 11.0323 5.51613C11.0323 2.47471 8.55755 0 5.51613 0C2.47471 0 0 2.47471 0 5.51613C0 8.55755 2.47471 11.0323 5.51613 11.0323C6.04219 11.0323 6.56594 10.955 7.07806 10.8023L14.2752 18L7.07748 25.1977C5.99748 24.8766 4.86116 24.894 3.76781 25.2528C2.12632 25.7923 0.823935 27.0946 0.284516 28.7367C-0.114387 29.9503 -0.0911613 31.219 0.349548 32.4052L0.664839 33.253L4.52439 29.3934C4.75142 29.1664 5.11839 29.1664 5.34542 29.3934L6.60658 30.6546C6.83303 30.881 6.83303 31.2492 6.60658 31.4756L2.74703 35.3352L3.59477 35.6505C4.21897 35.8821 4.86581 35.9988 5.51613 35.9988C6.10142 35.9988 6.68903 35.9048 7.26445 35.7161C8.90594 35.1766 10.2083 33.8743 10.7477 32.2322C11.106 31.14 11.124 30.0037 10.8029 28.9231L18 21.7248L25.1977 28.9219C25.045 29.4341 24.9677 29.9578 24.9677 30.4839C24.9677 33.5253 27.4425 36 30.4839 36C33.5253 36 36 33.5253 36 30.4839C36 27.4425 33.5253 24.9677 30.4839 24.9677ZM7.38174 9.46393L7.03219 9.594C6.53748 9.77806 6.0271 9.87097 5.51613 9.87097C3.11458 9.87097 1.16129 7.91768 1.16129 5.51613C1.16129 3.11458 3.11458 1.16129 5.51613 1.16129C7.91768 1.16129 9.87097 3.11458 9.87097 5.51613C9.87097 6.0271 9.77806 6.53748 9.59342 7.03219L9.46336 7.38174L17.1784 15.0968L15.0968 17.1784L7.38174 9.46393ZM9.46393 28.6183L9.594 28.9678C9.94761 29.9183 9.96503 30.8944 9.64452 31.8693C9.22006 33.1624 8.19464 34.1872 6.90213 34.6123C6.24077 34.8294 5.58058 34.8915 4.92619 34.7986L7.42877 32.2961C7.75742 31.9674 7.93916 31.5296 7.93916 31.0645C7.93916 30.5994 7.758 30.1616 7.42877 29.833L6.16761 28.5718C5.50974 27.9139 4.36239 27.9139 3.70452 28.5718L1.20194 31.0744C1.10961 30.4206 1.17116 29.7592 1.38832 29.099C1.81277 27.8059 2.83819 26.7811 4.13071 26.3561C5.10561 26.0361 6.08226 26.0524 7.03277 26.4066L7.38232 26.5366L15.0968 18.821L18.821 15.0968L26.5361 7.38174L26.406 7.03219C26.0524 6.08168 26.035 5.10561 26.3555 4.13071C26.7799 2.83761 27.8054 1.81277 29.0979 1.38774C29.7592 1.17116 30.42 1.10845 31.0738 1.20135L28.5712 3.70394C28.2426 4.03258 28.0608 4.47039 28.0608 4.93548C28.0608 5.40058 28.242 5.83839 28.5712 6.16703L29.8324 7.42819C30.4903 8.08606 31.6376 8.08606 32.2955 7.42819L34.7981 4.92561C34.8904 5.57942 34.8288 6.24077 34.6117 6.90097C34.1872 8.19406 33.1618 9.2189 31.8693 9.64394C30.8944 9.96387 29.9183 9.94761 28.9672 9.59342L28.6177 9.46336L20.9032 17.179L17.179 20.9032L9.46393 28.6183ZM30.4839 34.8387C28.0823 34.8387 26.129 32.8854 26.129 30.4839C26.129 29.9729 26.2219 29.4625 26.4066 28.9678L26.5366 28.6183L18.8216 20.9032L20.9032 18.8216L28.6183 26.5366L28.9678 26.4066C29.4625 26.2219 29.9729 26.129 30.4839 26.129C32.8854 26.129 34.8387 28.0823 34.8387 30.4839C34.8387 32.8854 32.8854 34.8387 30.4839 34.8387Z" fill="#352E48"/>
</g>
<defs>
<clipPath id="clip0_1429_92">
<rect width="36" height="36" fill="white"/>
</clipPath>
</defs>
</svg>
