<svg width="292" height="113" xmlns="http://www.w3.org/2000/svg"><g fill="#000203" fill-rule="evenodd"><path d="M45.9 1.471v33.582c0 11.214-4.964 15.871-16.607 15.871-11.644 0-16.608-4.657-16.608-15.871V0H1.471C.491 0 0 .491 0 1.471v34.133c0 18.753 11.95 25.31 29.293 25.31 17.342 0 29.292-6.557 29.292-25.31V0H47.37c-.98 0-1.47.491-1.47 1.471M208.469 9.744c.919 0 1.348-.306 1.654-.981l3.249-8.028c.184-.489 0-.735-.491-.735h-45.164c-4.229 0-5.821 1.287-5.821 4.167v52.15c0 2.452 1.224 3.555 4.473 3.555h42.1c.919 0 1.348-.307 1.654-.98l3.249-8.029c.184-.49 0-.735-.491-.735h-38.545V39.526c0-3.677 2.022-5.332 7.475-5.332h16.731c.919 0 1.347-.305 1.654-.979l3.126-7.722c.183-.491 0-.735-.491-.735h-28.495V9.744h34.133M117.196 50.251H95.067v-10.97c0-3.677 2.022-5.331 7.477-5.331h14.652c7.047 0 9.008 2.696 9.008 8.212 0 5.515-1.961 8.089-9.008 8.089zM95.067 9.621h19.8c6.618 0 8.457 2.493 8.457 7.66 0 5.168-1.839 7.661-8.457 7.661h-19.8zm33.895 18.691c4.902-2.574 6.924-7.415 6.924-13.114C135.886 1.961 125.101 0 113.948 0H88.455c-4.229 0-5.821 1.287-5.821 4.167v52.15c0 2.452 1.225 3.555 4.473 3.555h31.376c11.827 0 20.283-4.596 20.283-16.546 0-7.17-3.064-13.237-9.804-15.014zM268.246 27.76H247.41V9.622h20.836c7.782 0 9.498 3.002 9.498 9.069 0 6.128-1.716 9.069-9.498 9.069zm23.409 31.07l-13.42-23.042c6.679-1.715 12.072-6.127 12.072-17.342 0-14.523-9.009-18.446-23.9-18.446h-25.615c-4.228 0-5.822 1.287-5.822 4.167v54.234c0 .98.491 1.471 1.471 1.471h10.969V42.407c0-3.677 2.022-5.332 7.477-5.332h11.03l12.133 21.817c.368.612.736.98 1.655.98h11.399c.797 0 .797-.675.551-1.042z"/></g><g aria-label="ru" style="line-height:1.25" font-size="64"><path d="M258.846 86.016V80h-2.24c-3.584 0-6.208 1.664-7.808 4.288v-4.032h-6.4v32.64h6.464v-18.56c0-5.056 3.072-8.32 7.296-8.32zM263.134 101.12c0 6.976 5.056 12.416 12.544 12.416 3.904 0 7.36-1.6 9.6-4.288v3.648h6.464v-32.64h-6.464v19.392c0 4.8-3.328 8.192-8 8.192-4.608 0-7.68-3.392-7.68-7.936V80.256h-6.464z"/></g></svg>