<svg width="412.746" height="129.048" xmlns="http://www.w3.org/2000/svg"><path d="M327.256 0c-1.06.225-2.128.345-3.201.395-13.418.948-26.091 8.647-33.266 20.001-4.446 6.888-6.81 15.057-6.885 23.247-.012 11.234-.004 22.473-.004 33.707.034 5.972-.319 12.04 1.137 17.896 2.932 13.047 12.274 24.445 24.473 29.914a43.164 43.164 0 0014.103 3.735c2.487.245 4.987.115 7.479.144 13.03.004 26.06-.002 39.092.006 13.176-.191 26.011-6.88 33.851-17.45 5.748-7.627 8.9-17.197 8.701-26.751-.008-14.004-.004-28.012 0-42.016-.2-14.794-8.65-29.065-21.406-36.51A43.755 43.755 0 00375.2.656c-2.18-.324-4.396-.298-6.567-.656h-41.377zm.932 20.629c5.743-.262 11.342 2.209 15.564 6.002-1.081 2.928-2.172 5.849-3.236 8.785-3.34-3.785-7.882-7.117-13.139-7.08-4.093-.137-7.877 2.352-9.99 5.754-3.453 5.448-4.538 11.97-5.274 18.271-.823 9.3-.836 18.712.45 27.975.931 5.582 2.245 11.396 5.822 15.937 2.241 2.9 6.102 4.693 9.758 3.74 3.685-.968 6.105-4.302 7.582-7.617 3.115-7.145 3.231-15.106 3.115-22.767-4.243-.025-8.48-.003-12.723-.012 0-2.362-.004-4.725.004-7.092 7.092.004 14.184.004 21.28.004.074 9.654.19 19.503-2.622 28.84-1.451 4.766-3.76 9.492-7.648 12.74-4.758 4.001-11.73 4.804-17.461 2.633-5.05-1.913-8.768-6.24-11.176-10.943-4.005-8.02-5.207-17.081-5.685-25.932-.188-7.353-.11-14.757 1.168-22.023 1.293-7.35 3.618-14.883 8.738-20.51 3.876-4.326 9.658-6.871 15.473-6.705zm46.677 25.1c3.982-.047 8.024 1.242 10.953 3.994 4.251 3.938 6.186 9.68 7.213 15.236 1.273 7.774 1.322 15.784-.058 23.545-1.053 5.449-3.02 11.01-7.07 14.96-3.544 3.424-8.786 4.863-13.598 3.977-4.796-.66-8.867-3.95-11.291-8.027-3.582-5.998-4.625-13.098-4.946-19.965-.166-8.46.378-17.373 4.516-24.955 2.504-4.67 7.213-8.231 12.582-8.664.563-.06 1.13-.095 1.7-.101zm-.213 7.189a5.942 5.942 0 00-.933.14c-3.939.932-6.106 4.875-7.258 8.444-2.3 7.549-2.204 15.592-1.55 23.383.565 4.533 1.367 9.375 4.378 12.998 1.992 2.487 5.648 3.465 8.58 2.146 2.259-.96 3.778-3.04 4.8-5.195 1.91-4.018 2.434-8.505 2.8-12.885.25-5.827.237-11.721-.936-17.457-.711-3.236-1.768-6.555-4.031-9.058-1.448-1.638-3.661-2.67-5.85-2.516z" fill="#030405" fill-rule="evenodd"/><path d="M42.59 13.381l-17.303 50.83-15.015-42.026H0l20.428 54.489v30.413h9.4V77.098l22.269-63.717zm168.715 39.323c-1.404-2.254-3.136-3.86-5.294-4.826a15.904 15.904 0 00-6.817-1.51c-3.128 0-5.946.861-8.21 2.476-2.266 1.606-4.212 3.977-5.625 6.976-1.51 3.01-2.594 6.455-3.244 10.539-.637 4.083-.967 8.485-.967 13.323 0 9.242 1.84 16.334 5.401 21.056 3.574 4.839 8.434 7.208 14.708 7.208 3.02 0 5.72-.434 8.101-1.294 2.372-.864 4.436-2.042 6.371-3.542l-2.158-7.094c-1.19.862-2.702 1.722-4.647 2.68a16.668 16.668 0 01-6.806 1.403c-3.787 0-6.594-1.72-8.434-5.262-1.837-3.447-2.806-8.602-2.806-15.485h25.074v-5.04c0-5.05-.435-9.358-1.19-12.897-.863-3.658-2.052-6.446-3.457-8.711zM190.878 71.73c.317-5.371 1.075-9.668 2.264-12.9 1.193-3.221 3.245-4.828 6.052-4.828 1.413 0 2.488.425 3.348 1.288.874.86 1.628 2.148 2.17 3.656.542 1.607.863 3.436 1.076 5.584.233 2.36.34 4.72.328 7.093h-15.239zm-28.435-22.993c-.863-.647-2.042-1.178-3.34-1.614a14.132 14.132 0 00-4.22-.639c-6.051 0-10.922 2.68-14.697 8.167-3.787 5.477-5.624 13.749-5.624 24.819 0 9.348 1.508 16.44 4.647 21.268 3.136 4.839 7.677 7.208 13.622 7.208 2.488 0 4.54-.54 6.26-1.507a18.19 18.19 0 004.659-4.083h.64l.754 4.73h6.923V22.186h-9.294v26.542h-.33zm0 46.748c-.754 1.181-1.83 2.253-3.234 3.223-1.414.955-3.136 1.391-5.518 1.391-3.455 0-5.837-2.042-7.241-6.016-1.405-3.978-2.16-9.561-2.16-16.55 0-3.114.213-6.018.65-8.813.435-2.785 1.085-5.263 2.052-7.52a15.376 15.376 0 013.457-5.262 7.03 7.03 0 014.977-1.936c1.616 0 2.913.213 3.998.743 1.083.436 2.05 1.193 3.02 2.16zm82.689-20.206l11.24-28.05h-9.082l-8.315 21.714-7.678-21.714h-9.729l11.347 28.914-12.539 30.944h9.187l9.082-24.713 9.294 24.713h9.73l-12.537-31.818zM79.872 93.538V65.39c0-3.656-.319-6.667-1.087-9.134-.753-2.36-1.72-4.295-3.125-5.806-1.404-1.5-3.136-2.467-5.188-3.114-2.054-.64-4.435-.969-7.029-.969-3.022 0-5.839.541-8.434 1.51-2.584 1.073-4.53 2.148-5.934 3.222l1.829 8.166a28.364 28.364 0 015.414-3.656c1.944-1.075 4.21-1.607 6.591-1.607 2.586 0 4.647.86 5.935 2.574 1.309 1.722 1.946 4.624 1.946 8.602v3.542H69.49c-4.21 0-7.772.541-10.695 1.51-2.916.966-5.404 2.36-7.242 4.189a16.548 16.548 0 00-4.104 6.55c-.864 2.583-1.299 5.477-1.299 8.709 0 5.902 1.299 10.421 3.999 13.538 2.7 3.117 6.169 4.614 10.484 4.614 2.596 0 4.861-.531 6.593-1.497 1.734-1.076 3.351-2.363 4.647-4.084h.65c.107.754.213 1.614.33 2.467.106.86.318 1.617.424 2.264h7.89c-.213-1.403-.425-3.34-.754-5.7-.436-2.254-.543-4.837-.543-7.742zm-9.188 1.83c-.863 1.404-2.053 2.476-3.564 3.328-1.508.86-3.03 1.403-4.647 1.403-2.382 0-4.104-1.073-5.294-3.115-1.192-2.042-1.734-4.837-1.734-8.273 0-1.935.212-3.658.648-5.275.438-1.604 1.086-2.892 2.158-4.084 1.086-1.167 2.49-2.042 4.329-2.572 1.84-.637 4.211-.86 7.028-.86h1.076zm42.48-48.896c-1.4 0-2.816.223-3.996.65-1.191.427-2.381.861-3.35 1.499a20.273 20.273 0 00-2.701 1.935 23.208 23.208 0 00-1.733 1.936h-.65V47.23h-9.293v59.963h9.294V60.66a18.703 18.703 0 014.106-4.084c1.624-1.18 3.348-1.83 5.4-1.83 1.84 0 3.245.435 4.222 1.298.967.85 1.405 2.467 1.405 4.72v46.323h9.4V60.02c0-9.029-4-13.549-12.103-13.549z" fill-rule="evenodd"/></svg>