<svg width="16" height="16" viewBox="0 0 16 16" fill="none" xmlns="http://www.w3.org/2000/svg">
<path d="M10.62 7.63755L5.04705 2.32755C4.95406 2.2389 4.83052 2.18945 4.70205 2.18945C4.57358 2.18945 4.45004 2.2389 4.35705 2.32755L4.35105 2.33355C4.30581 2.37652 4.26979 2.42825 4.24518 2.48558C4.22056 2.54291 4.20787 2.60465 4.20787 2.66705C4.20787 2.72944 4.22056 2.79118 4.24518 2.84852C4.26979 2.90585 4.30581 2.95757 4.35105 3.00055L9.59905 8.00055L4.35105 12.9985C4.30581 13.0415 4.26979 13.0932 4.24518 13.1506C4.22056 13.2079 4.20787 13.2697 4.20787 13.332C4.20787 13.3944 4.22056 13.4562 4.24518 13.5135C4.26979 13.5708 4.30581 13.6226 4.35105 13.6655L4.35705 13.6715C4.45003 13.7602 4.57357 13.8096 4.70205 13.8096C4.83052 13.8096 4.95406 13.7602 5.04705 13.6715L10.62 8.36155C10.6691 8.31485 10.7081 8.25869 10.7347 8.19646C10.7614 8.13424 10.7751 8.06725 10.7751 7.99955C10.7751 7.93185 10.7614 7.86486 10.7347 7.80263C10.7081 7.74041 10.6691 7.68425 10.62 7.63755Z" fill="#2f4153"/>
</svg>
