<svg xmlns="http://www.w3.org/2000/svg" xmlns:xlink="http://www.w3.org/1999/xlink" viewBox="-200 -20 410 200">

<defs><style>.cls-1{fill:none;}.cls-2{fill:#f18128;}.cls-3{fill:#1d1c29;}.cls-4{fill:#fff;}.cls-5{clip-path:url(#clip-path);}</style></defs>

<rect width="1000px" height="1000px" x="-500px" y="-500px" class="cls-2"/><path class="cls-3" d="M122.38,41.29h0a40.07,40.07,0,0,1,40.07,40.07v49.25a0,0,0,0,1,0,0H82.31a0,0,0,0,1,0,0V81.36a40.07,40.07,0,0,1,40.07-40.07Z"/>
<circle class="cls-4" cx="104.19" cy="85.96" r="4.96"/>
<circle class="cls-4" cx="140.58" cy="85.96" r="4.96"/>
<path class="cls-3" d="M52.5,158.36a21.22,21.22,0,0,1-21.19-21.19V108.93A17.36,17.36,0,0,0,14,91.59H-215V87.74H14a21.22,21.22,0,0,1,21.2,21.19v28.24a17.34,17.34,0,0,0,34.67,0V118.23h3.85v18.94A21.21,21.21,0,0,1,52.5,158.36Z" transform="translate(25.16)"/>
<rect class="cls-3" x="112.22" y="119.94" width="4.11" height="82.82"/>
<rect class="cls-3" x="129.57" y="119.94" width="4.11" height="82.82"/>
<path class="cls-3" d="M171.63,225.08H121.76V126.76h4.11V221h41.65V140.88a16.18,16.18,0,0,1,16.16-16.17h25v4.11h-25a12.06,12.06,0,0,0-12.05,12.06Z" transform="translate(25.16)"/>

<text style="font-style:normal;font-weight:normal;font-size:32px;line-height:1.25;font-family:sans-serif;letter-spacing:0px;word-spacing:0px;fill:#fff;fill-opacity:1;stroke:none">

<tspan x="-185px" y="78">📋 May 2023</tspan>
<tspan x="-185px" y="120"></tspan>

</text>

</svg>
